<?xml version="1.0" standalone="no"?><!-- Generator: Gravit.io --><svg xmlns="http://www.w3.org/2000/svg" xmlns:xlink="http://www.w3.org/1999/xlink" style="isolation:isolate" viewBox="0 0 188.796 50" width="188.796" height="50"><g><g><path d=" M 85.002 5.444 L 85.002 5.444 Q 88.666 5.444 90.758 7.554 L 90.758 7.554 L 90.758 7.554 Q 92.849 9.663 92.849 13.772 L 92.849 13.772 L 92.849 25.06 L 90.221 25.06 L 90.221 14.031 L 90.221 14.031 Q 90.221 10.996 88.759 9.404 L 88.759 9.404 L 88.759 9.404 Q 87.297 7.813 84.632 7.813 L 84.632 7.813 L 84.632 7.813 Q 81.597 7.813 79.858 9.682 L 79.858 9.682 L 79.858 9.682 Q 78.118 11.551 78.118 14.845 L 78.118 14.845 L 78.118 25.06 L 75.49 25.06 L 75.49 14.031 L 75.49 14.031 Q 75.49 10.996 74.029 9.404 L 74.029 9.404 L 74.029 9.404 Q 72.567 7.813 69.865 7.813 L 69.865 7.813 L 69.865 7.813 Q 66.867 7.813 65.109 9.682 L 65.109 9.682 L 65.109 9.682 Q 63.351 11.551 63.351 14.845 L 63.351 14.845 L 63.351 25.06 L 60.723 25.06 L 60.723 5.592 L 63.24 5.592 L 63.24 9.145 L 63.24 9.145 Q 64.276 7.369 66.127 6.406 L 66.127 6.406 L 66.127 6.406 Q 67.977 5.444 70.383 5.444 L 70.383 5.444 L 70.383 5.444 Q 72.826 5.444 74.621 6.48 L 74.621 6.48 L 74.621 6.48 Q 76.416 7.517 77.304 9.552 L 77.304 9.552 L 77.304 9.552 Q 78.377 7.628 80.394 6.536 L 80.394 6.536 L 80.394 6.536 Q 82.412 5.444 85.002 5.444 L 85.002 5.444 Z " fill="rgb(0,0,0)"/><path d=" M 106.802 5.444 L 106.802 5.444 Q 110.614 5.444 112.65 7.35 L 112.65 7.35 L 112.65 7.35 Q 114.685 9.256 114.685 12.994 L 114.685 12.994 L 114.685 25.06 L 112.169 25.06 L 112.169 22.025 L 112.169 22.025 Q 111.28 23.543 109.559 24.394 L 109.559 24.394 L 109.559 24.394 Q 107.838 25.245 105.469 25.245 L 105.469 25.245 L 105.469 25.245 Q 102.212 25.245 100.288 23.691 L 100.288 23.691 L 100.288 23.691 Q 98.363 22.136 98.363 19.582 L 98.363 19.582 L 98.363 19.582 Q 98.363 17.103 100.158 15.585 L 100.158 15.585 L 100.158 15.585 Q 101.953 14.068 105.877 14.068 L 105.877 14.068 L 112.057 14.068 L 112.057 12.883 L 112.057 12.883 Q 112.057 10.367 110.651 9.053 L 110.651 9.053 L 110.651 9.053 Q 109.245 7.739 106.543 7.739 L 106.543 7.739 L 106.543 7.739 Q 104.692 7.739 102.99 8.35 L 102.99 8.35 L 102.99 8.35 Q 101.287 8.96 100.066 10.034 L 100.066 10.034 L 98.882 8.072 L 98.882 8.072 Q 100.362 6.814 102.435 6.129 L 102.435 6.129 L 102.435 6.129 Q 104.507 5.444 106.802 5.444 L 106.802 5.444 Z  M 105.877 23.172 L 105.877 23.172 Q 108.097 23.172 109.689 22.155 L 109.689 22.155 L 109.689 22.155 Q 111.28 21.137 112.057 19.212 L 112.057 19.212 L 112.057 16.029 L 105.951 16.029 L 105.951 16.029 Q 100.954 16.029 100.954 19.508 L 100.954 19.508 L 100.954 19.508 Q 100.954 21.211 102.25 22.192 L 102.25 22.192 L 102.25 22.192 Q 103.545 23.172 105.877 23.172 L 105.877 23.172 Z " fill-rule="evenodd" fill="rgb(0,0,0)"/><path d=" M 124.345 9.404 L 124.345 9.404 Q 125.27 7.443 127.102 6.443 L 127.102 6.443 L 127.102 6.443 Q 128.935 5.444 131.636 5.444 L 131.636 5.444 L 131.636 7.998 L 131.007 7.961 L 131.007 7.961 Q 127.935 7.961 126.196 9.848 L 126.196 9.848 L 126.196 9.848 Q 124.456 11.736 124.456 15.141 L 124.456 15.141 L 124.456 25.06 L 121.828 25.06 L 121.828 5.592 L 124.345 5.592 L 124.345 9.404 Z " fill="rgb(0,0,0)"/><path d=" M 144.738 25.245 L 144.738 25.245 Q 141.851 25.245 139.575 23.987 L 139.575 23.987 L 139.575 23.987 Q 137.299 22.728 136.004 20.452 L 136.004 20.452 L 136.004 20.452 Q 134.708 18.176 134.708 15.326 L 134.708 15.326 L 134.708 15.326 Q 134.708 12.476 136.004 10.219 L 136.004 10.219 L 136.004 10.219 Q 137.299 7.961 139.575 6.703 L 139.575 6.703 L 139.575 6.703 Q 141.851 5.444 144.738 5.444 L 144.738 5.444 L 144.738 5.444 Q 147.255 5.444 149.235 6.425 L 149.235 6.425 L 149.235 6.425 Q 151.215 7.406 152.363 9.293 L 152.363 9.293 L 150.401 10.626 L 150.401 10.626 Q 149.439 9.182 147.958 8.461 L 147.958 8.461 L 147.958 8.461 Q 146.478 7.739 144.738 7.739 L 144.738 7.739 L 144.738 7.739 Q 142.629 7.739 140.945 8.683 L 140.945 8.683 L 140.945 8.683 Q 139.261 9.626 138.317 11.366 L 138.317 11.366 L 138.317 11.366 Q 137.373 13.105 137.373 15.326 L 137.373 15.326 L 137.373 15.326 Q 137.373 17.584 138.317 19.305 L 138.317 19.305 L 138.317 19.305 Q 139.261 21.026 140.945 21.97 L 140.945 21.97 L 140.945 21.97 Q 142.629 22.913 144.738 22.913 L 144.738 22.913 L 144.738 22.913 Q 146.478 22.913 147.958 22.21 L 147.958 22.21 L 147.958 22.21 Q 149.439 21.507 150.401 20.064 L 150.401 20.064 L 152.363 21.396 L 152.363 21.396 Q 151.215 23.284 149.217 24.264 L 149.217 24.264 L 149.217 24.264 Q 147.218 25.245 144.738 25.245 L 144.738 25.245 Z " fill="rgb(0,0,0)"/><path d=" M 157.507 25.06 L 157.507 10.363 L 160.135 10.363 L 160.135 25.06 L 157.507 25.06 Z " fill="rgb(0,0,0)"/><path d=" M 158.84 8.738 L 158.84 8.738 Q 158.025 8.738 157.47 8.183 L 157.47 8.183 L 157.47 8.183 Q 156.915 7.628 156.915 6.851 L 156.915 6.851 L 156.915 6.851 Q 156.915 6.11 157.47 5.555 L 157.47 5.555 L 157.47 5.555 Q 158.025 5 158.84 5 L 158.84 5 L 158.84 5 Q 159.654 5 160.209 5.537 L 160.209 5.537 L 160.209 5.537 Q 160.764 6.073 160.764 6.814 L 160.764 6.814 L 160.764 6.814 Q 160.764 7.628 160.209 8.183 L 160.209 8.183 L 160.209 8.183 Q 159.654 8.738 158.84 8.738 L 158.84 8.738 Z " fill="rgb(0,0,0)"/><path d=" M 177.382 5.444 L 177.382 5.444 Q 181.046 5.444 183.211 7.572 L 183.211 7.572 L 183.211 7.572 Q 185.377 9.7 185.377 13.772 L 185.377 13.772 L 185.377 25.06 L 182.749 25.06 L 182.749 14.031 L 182.749 14.031 Q 182.749 10.996 181.231 9.404 L 181.231 9.404 L 181.231 9.404 Q 179.714 7.813 176.901 7.813 L 176.901 7.813 L 176.901 7.813 Q 173.755 7.813 171.923 9.682 L 171.923 9.682 L 171.923 9.682 Q 170.091 11.551 170.091 14.845 L 170.091 14.845 L 170.091 25.06 L 167.463 25.06 L 167.463 5.592 L 169.98 5.592 L 169.98 9.182 L 169.98 9.182 Q 171.053 7.406 172.959 6.425 L 172.959 6.425 L 172.959 6.425 Q 174.865 5.444 177.382 5.444 L 177.382 5.444 Z " fill="rgb(0,0,0)"/><path d=" M 72.65 35.025 L 72.65 35.025 Q 74.229 35.578 75.124 36.749 L 75.124 36.749 L 75.124 36.749 Q 76.018 37.92 76.018 39.578 L 76.018 39.578 L 76.018 39.578 Q 76.018 42 74.071 43.316 L 74.071 43.316 L 74.071 43.316 Q 72.123 44.632 68.439 44.632 L 68.439 44.632 L 58.49 44.632 L 58.49 26.208 L 67.912 26.208 L 67.912 26.208 Q 71.439 26.208 73.281 27.511 L 73.281 27.511 L 73.281 27.511 Q 75.124 28.814 75.124 31.025 L 75.124 31.025 L 75.124 31.025 Q 75.124 32.341 74.479 33.38 L 74.479 33.38 L 74.479 33.38 Q 73.834 34.42 72.65 35.025 L 72.65 35.025 Z  M 67.228 29.972 L 63.649 29.972 L 63.649 33.525 L 67.228 33.525 L 67.228 33.525 Q 69.86 33.525 69.86 31.735 L 69.86 31.735 L 69.86 31.735 Q 69.86 29.972 67.228 29.972 L 67.228 29.972 Z  M 68.017 40.868 L 68.017 40.868 Q 70.755 40.868 70.755 38.999 L 70.755 38.999 L 70.755 38.999 Q 70.755 37.131 68.017 37.131 L 68.017 37.131 L 63.649 37.131 L 63.649 40.868 L 68.017 40.868 Z  M 92.521 44.632 L 91.073 41.052 L 83.283 41.052 L 81.835 44.632 L 76.519 44.632 L 84.651 26.208 L 89.783 26.208 L 97.942 44.632 L 92.521 44.632 Z  M 84.809 37.21 L 89.546 37.21 L 87.178 31.314 L 84.809 37.21 Z  M 110.812 44.632 L 107.47 39.736 L 104.627 39.736 L 104.627 44.632 L 99.416 44.632 L 99.416 26.208 L 107.838 26.208 L 107.838 26.208 Q 110.338 26.208 112.181 27.037 L 112.181 27.037 L 112.181 27.037 Q 114.023 27.866 115.023 29.406 L 115.023 29.406 L 115.023 29.406 Q 116.023 30.946 116.023 33.025 L 116.023 33.025 L 116.023 33.025 Q 116.023 35.025 115.089 36.512 L 115.089 36.512 L 115.089 36.512 Q 114.155 37.999 112.418 38.841 L 112.418 38.841 L 116.392 44.632 L 110.812 44.632 Z  M 110.76 33.025 L 110.76 33.025 Q 110.76 31.735 109.944 31.025 L 109.944 31.025 L 109.944 31.025 Q 109.128 30.314 107.522 30.314 L 107.522 30.314 L 104.627 30.314 L 104.627 35.709 L 107.522 35.709 L 107.522 35.709 Q 109.128 35.709 109.944 35.012 L 109.944 35.012 L 109.944 35.012 Q 110.76 34.314 110.76 33.025 L 110.76 33.025 Z  M 125.367 45 L 125.367 45 Q 123.13 45 121.024 44.447 L 121.024 44.447 L 121.024 44.447 Q 118.919 43.895 117.603 42.973 L 117.603 42.973 L 119.313 39.131 L 119.313 39.131 Q 120.55 39.947 122.182 40.447 L 122.182 40.447 L 122.182 40.447 Q 123.814 40.947 125.393 40.947 L 125.393 40.947 L 125.393 40.947 Q 128.393 40.947 128.393 39.447 L 128.393 39.447 L 128.393 39.447 Q 128.393 38.657 127.538 38.275 L 127.538 38.275 L 127.538 38.275 Q 126.683 37.894 124.788 37.473 L 124.788 37.473 L 124.788 37.473 Q 122.708 37.025 121.314 36.512 L 121.314 36.512 L 121.314 36.512 Q 119.919 35.999 118.919 34.867 L 118.919 34.867 L 118.919 34.867 Q 117.918 33.735 117.918 31.814 L 117.918 31.814 L 117.918 31.814 Q 117.918 30.13 118.84 28.774 L 118.84 28.774 L 118.84 28.774 Q 119.761 27.419 121.59 26.629 L 121.59 26.629 L 121.59 26.629 Q 123.419 25.84 126.077 25.84 L 126.077 25.84 L 126.077 25.84 Q 127.893 25.84 129.657 26.248 L 129.657 26.248 L 129.657 26.248 Q 131.42 26.656 132.762 27.445 L 132.762 27.445 L 131.157 31.314 L 131.157 31.314 Q 128.525 29.893 126.051 29.893 L 126.051 29.893 L 126.051 29.893 Q 124.498 29.893 123.788 30.353 L 123.788 30.353 L 123.788 30.353 Q 123.077 30.814 123.077 31.551 L 123.077 31.551 L 123.077 31.551 Q 123.077 32.288 123.919 32.656 L 123.919 32.656 L 123.919 32.656 Q 124.761 33.025 126.63 33.42 L 126.63 33.42 L 126.63 33.42 Q 128.736 33.867 130.117 34.38 L 130.117 34.38 L 130.117 34.38 Q 131.499 34.893 132.512 36.012 L 132.512 36.012 L 132.512 36.012 Q 133.526 37.131 133.526 39.052 L 133.526 39.052 L 133.526 39.052 Q 133.526 40.71 132.604 42.052 L 132.604 42.052 L 132.604 42.052 Q 131.683 43.395 129.841 44.197 L 129.841 44.197 L 129.841 44.197 Q 127.999 45 125.367 45 L 125.367 45 Z  M 141.816 40.499 L 151.501 40.499 L 151.501 44.632 L 134.999 44.632 L 134.999 41.368 L 144.29 30.34 L 135.236 30.34 L 135.236 26.208 L 151.107 26.208 L 151.107 29.472 L 141.816 40.499 Z  M 162.977 45 L 162.977 45 Q 160.081 45 157.779 43.776 L 157.779 43.776 L 157.779 43.776 Q 155.476 42.552 154.16 40.368 L 154.16 40.368 L 154.16 40.368 Q 152.844 38.183 152.844 35.42 L 152.844 35.42 L 152.844 35.42 Q 152.844 32.656 154.16 30.472 L 154.16 30.472 L 154.16 30.472 Q 155.476 28.287 157.779 27.064 L 157.779 27.064 L 157.779 27.064 Q 160.081 25.84 162.977 25.84 L 162.977 25.84 L 162.977 25.84 Q 165.503 25.84 167.53 26.735 L 167.53 26.735 L 167.53 26.735 Q 169.556 27.629 170.899 29.314 L 170.899 29.314 L 167.582 32.314 L 167.582 32.314 Q 165.793 30.156 163.24 30.156 L 163.24 30.156 L 163.24 30.156 Q 161.74 30.156 160.568 30.814 L 160.568 30.814 L 160.568 30.814 Q 159.397 31.472 158.752 32.67 L 158.752 32.67 L 158.752 32.67 Q 158.108 33.867 158.108 35.42 L 158.108 35.42 L 158.108 35.42 Q 158.108 36.973 158.752 38.17 L 158.752 38.17 L 158.752 38.17 Q 159.397 39.368 160.568 40.026 L 160.568 40.026 L 160.568 40.026 Q 161.74 40.684 163.24 40.684 L 163.24 40.684 L 163.24 40.684 Q 165.793 40.684 167.582 38.526 L 167.582 38.526 L 170.899 41.526 L 170.899 41.526 Q 169.556 43.21 167.53 44.105 L 167.53 44.105 L 167.53 44.105 Q 165.503 45 162.977 45 L 162.977 45 Z  M 179.11 40.499 L 188.796 40.499 L 188.796 44.632 L 172.294 44.632 L 172.294 41.368 L 181.584 30.34 L 172.53 30.34 L 172.53 26.208 L 188.401 26.208 L 188.401 29.472 L 179.11 40.499 Z " fill-rule="evenodd" fill="rgb(0,0,0)"/></g><g><path d=" M 40 20 L 43.333 20 L 43.333 23.333 L 40 23.333 L 40 20 L 40 20 L 40 20 L 40 20 L 40 20 L 40 20 L 40 20 L 40 20 L 40 20 L 40 20 L 40 20 L 40 20 L 40 20 L 40 20 L 40 20 L 40 20 L 40 20 L 40 20 L 40 20 L 40 20 L 40 20 L 40 20 L 40 20 L 40 20 L 40 20 L 40 20 L 40 20 L 40 20 L 40 20 L 40 20 L 40 20 L 40 20 L 40 20 L 40 20 Z  M 46.667 20 L 50 20 L 50 23.333 L 46.667 23.333 L 46.667 20 L 46.667 20 L 46.667 20 L 46.667 20 L 46.667 20 L 46.667 20 L 46.667 20 L 46.667 20 L 46.667 20 L 46.667 20 L 46.667 20 L 46.667 20 L 46.667 20 L 46.667 20 L 46.667 20 L 46.667 20 L 46.667 20 L 46.667 20 L 46.667 20 L 46.667 20 L 46.667 20 L 46.667 20 L 46.667 20 L 46.667 20 L 46.667 20 L 46.667 20 L 46.667 20 L 46.667 20 L 46.667 20 L 46.667 20 L 46.667 20 L 46.667 20 L 46.667 20 Z  M 13.333 0 L 16.667 0 L 16.667 3.333 L 13.333 3.333 L 13.333 0 L 13.333 0 L 13.333 0 L 13.333 0 L 13.333 0 L 13.333 0 L 13.333 0 L 13.333 0 L 13.333 0 L 13.333 0 L 13.333 0 L 13.333 0 L 13.333 0 L 13.333 0 L 13.333 0 L 13.333 0 L 13.333 0 L 13.333 0 L 13.333 0 L 13.333 0 L 13.333 0 L 13.333 0 L 13.333 0 L 13.333 0 L 13.333 0 L 13.333 0 L 13.333 0 L 13.333 0 L 13.333 0 L 13.333 0 L 13.333 0 L 13.333 0 L 13.333 0 L 13.333 0 L 13.333 0 L 13.333 0 L 13.333 0 L 13.333 0 L 13.333 0 L 13.333 0 L 13.333 0 L 13.333 0 L 13.333 0 L 13.333 0 L 13.333 0 L 13.333 0 L 13.333 0 L 13.333 0 L 13.333 0 L 13.333 0 L 13.333 0 L 13.333 0 L 13.333 0 L 13.333 0 L 13.333 0 L 13.333 0 L 13.333 0 L 13.333 0 L 13.333 0 L 13.333 0 L 13.333 0 L 13.333 0 Z  M 20 0 L 23.333 0 L 23.333 3.333 L 20 3.333 L 20 0 L 20 0 L 20 0 L 20 0 L 20 0 L 20 0 L 20 0 L 20 0 L 20 0 L 20 0 L 20 0 L 20 0 L 20 0 L 20 0 L 20 0 L 20 0 L 20 0 L 20 0 L 20 0 L 20 0 L 20 0 L 20 0 L 20 0 L 20 0 L 20 0 L 20 0 L 20 0 L 20 0 L 20 0 L 20 0 L 20 0 L 20 0 L 20 0 L 20 0 L 20 0 L 20 0 L 20 0 L 20 0 L 20 0 L 20 0 L 20 0 L 20 0 L 20 0 L 20 0 L 20 0 L 20 0 L 20 0 L 20 0 L 20 0 L 20 0 L 20 0 L 20 0 L 20 0 L 20 0 L 20 0 L 20 0 L 20 0 L 20 0 L 20 0 L 20 0 L 20 0 Z  M 26.667 0 L 30 0 L 30 3.333 L 26.667 3.333 L 26.667 0 L 26.667 0 L 26.667 0 L 26.667 0 L 26.667 0 L 26.667 0 L 26.667 0 L 26.667 0 L 26.667 0 L 26.667 0 L 26.667 0 L 26.667 0 L 26.667 0 L 26.667 0 L 26.667 0 L 26.667 0 L 26.667 0 L 26.667 0 L 26.667 0 L 26.667 0 L 26.667 0 L 26.667 0 L 26.667 0 L 26.667 0 L 26.667 0 L 26.667 0 L 26.667 0 L 26.667 0 L 26.667 0 L 26.667 0 L 26.667 0 L 26.667 0 L 26.667 0 L 26.667 0 L 26.667 0 L 26.667 0 L 26.667 0 L 26.667 0 L 26.667 0 L 26.667 0 L 26.667 0 L 26.667 0 L 26.667 0 L 26.667 0 L 26.667 0 L 26.667 0 L 26.667 0 L 26.667 0 L 26.667 0 L 26.667 0 L 26.667 0 L 26.667 0 L 26.667 0 L 26.667 0 L 26.667 0 L 26.667 0 L 26.667 0 L 26.667 0 L 26.667 0 L 26.667 0 Z  M 6.667 0 L 10 0 L 10 3.333 L 6.667 3.333 L 6.667 0 L 6.667 0 L 6.667 0 L 6.667 0 L 6.667 0 L 6.667 0 L 6.667 0 L 6.667 0 L 6.667 0 L 6.667 0 L 6.667 0 L 6.667 0 L 6.667 0 L 6.667 0 L 6.667 0 L 6.667 0 L 6.667 0 L 6.667 0 L 6.667 0 L 6.667 0 L 6.667 0 L 6.667 0 L 6.667 0 L 6.667 0 L 6.667 0 L 6.667 0 L 6.667 0 L 6.667 0 L 6.667 0 L 6.667 0 L 6.667 0 L 6.667 0 L 6.667 0 L 6.667 0 L 6.667 0 L 6.667 0 L 6.667 0 L 6.667 0 L 6.667 0 L 6.667 0 L 6.667 0 L 6.667 0 L 6.667 0 L 6.667 0 L 6.667 0 L 6.667 0 L 6.667 0 L 6.667 0 L 6.667 0 L 6.667 0 L 6.667 0 L 6.667 0 L 6.667 0 L 6.667 0 L 6.667 0 L 6.667 0 L 6.667 0 L 6.667 0 L 6.667 0 L 6.667 0 L 6.667 0 L 6.667 0 L 6.667 0 Z  M 33.333 0 L 36.667 0 L 36.667 3.333 L 33.333 3.333 L 33.333 0 L 33.333 0 L 33.333 0 L 33.333 0 L 33.333 0 L 33.333 0 L 33.333 0 L 33.333 0 L 33.333 0 L 33.333 0 L 33.333 0 L 33.333 0 L 33.333 0 L 33.333 0 L 33.333 0 L 33.333 0 L 33.333 0 L 33.333 0 L 33.333 0 L 33.333 0 L 33.333 0 L 33.333 0 L 33.333 0 L 33.333 0 L 33.333 0 L 33.333 0 L 33.333 0 L 33.333 0 L 33.333 0 L 33.333 0 L 33.333 0 L 33.333 0 L 33.333 0 L 33.333 0 L 33.333 0 L 33.333 0 L 33.333 0 L 33.333 0 L 33.333 0 L 33.333 0 L 33.333 0 L 33.333 0 L 33.333 0 L 33.333 0 L 33.333 0 L 33.333 0 L 33.333 0 L 33.333 0 L 33.333 0 L 33.333 0 L 33.333 0 L 33.333 0 L 33.333 0 L 33.333 0 L 33.333 0 L 33.333 0 L 33.333 0 L 33.333 0 L 33.333 0 Z  M 0 0 L 3.333 0 L 3.333 3.333 L 0 3.333 L 0 0 L 0 0 L 0 0 L 0 0 L 0 0 L 0 0 L 0 0 L 0 0 L 0 0 L 0 0 L 0 0 L 0 0 L 0 0 L 0 0 L 0 0 L 0 0 L 0 0 L 0 0 L 0 0 L 0 0 L 0 0 L 0 0 L 0 0 L 0 0 L 0 0 L 0 0 L 0 0 L 0 0 L 0 0 L 0 0 L 0 0 L 0 0 L 0 0 L 0 0 L 0 0 L 0 0 L 0 0 L 0 0 L 0 0 L 0 0 L 0 0 L 0 0 L 0 0 L 0 0 L 0 0 L 0 0 L 0 0 L 0 0 L 0 0 L 0 0 L 0 0 L 0 0 L 0 0 L 0 0 L 0 0 L 0 0 L 0 0 L 0 0 L 0 0 L 0 0 L 0 0 L 0 0 L 0 0 Z  M 40 0 L 43.333 0 L 43.333 3.333 L 40 3.333 L 40 0 L 40 0 L 40 0 L 40 0 L 40 0 L 40 0 L 40 0 L 40 0 L 40 0 L 40 0 L 40 0 L 40 0 L 40 0 L 40 0 L 40 0 L 40 0 L 40 0 L 40 0 L 40 0 L 40 0 L 40 0 L 40 0 L 40 0 L 40 0 L 40 0 L 40 0 L 40 0 L 40 0 L 40 0 L 40 0 L 40 0 L 40 0 L 40 0 L 40 0 L 40 0 L 40 0 L 40 0 L 40 0 L 40 0 L 40 0 L 40 0 L 40 0 L 40 0 L 40 0 L 40 0 L 40 0 L 40 0 L 40 0 L 40 0 L 40 0 L 40 0 L 40 0 L 40 0 L 40 0 L 40 0 L 40 0 L 40 0 L 40 0 Z  M 46.667 0 L 50 0 L 50 3.333 L 46.667 3.333 L 46.667 0 L 46.667 0 L 46.667 0 L 46.667 0 L 46.667 0 L 46.667 0 L 46.667 0 L 46.667 0 L 46.667 0 L 46.667 0 L 46.667 0 L 46.667 0 L 46.667 0 L 46.667 0 L 46.667 0 L 46.667 0 L 46.667 0 L 46.667 0 L 46.667 0 L 46.667 0 L 46.667 0 L 46.667 0 L 46.667 0 L 46.667 0 L 46.667 0 L 46.667 0 L 46.667 0 L 46.667 0 L 46.667 0 L 46.667 0 L 46.667 0 L 46.667 0 L 46.667 0 L 46.667 0 L 46.667 0 L 46.667 0 L 46.667 0 L 46.667 0 L 46.667 0 L 46.667 0 L 46.667 0 L 46.667 0 L 46.667 0 L 46.667 0 L 46.667 0 L 46.667 0 L 46.667 0 L 46.667 0 L 46.667 0 L 46.667 0 L 46.667 0 L 46.667 0 L 46.667 0 L 46.667 0 L 46.667 0 L 46.667 0 L 46.667 0 Z  M 0 6.667 L 3.333 6.667 L 3.333 10 L 0 10 L 0 6.667 L 0 6.667 L 0 6.667 L 0 6.667 L 0 6.667 L 0 6.667 L 0 6.667 L 0 6.667 L 0 6.667 L 0 6.667 L 0 6.667 L 0 6.667 L 0 6.667 L 0 6.667 L 0 6.667 L 0 6.667 L 0 6.667 L 0 6.667 L 0 6.667 L 0 6.667 L 0 6.667 L 0 6.667 L 0 6.667 L 0 6.667 L 0 6.667 L 0 6.667 L 0 6.667 L 0 6.667 L 0 6.667 L 0 6.667 L 0 6.667 L 0 6.667 L 0 6.667 L 0 6.667 L 0 6.667 L 0 6.667 L 0 6.667 L 0 6.667 L 0 6.667 L 0 6.667 L 0 6.667 L 0 6.667 L 0 6.667 L 0 6.667 L 0 6.667 L 0 6.667 L 0 6.667 L 0 6.667 L 0 6.667 L 0 6.667 L 0 6.667 L 0 6.667 L 0 6.667 L 0 6.667 L 0 6.667 L 0 6.667 Z  M 6.667 6.667 L 10 6.667 L 10 10 L 6.667 10 L 6.667 6.667 L 6.667 6.667 L 6.667 6.667 L 6.667 6.667 L 6.667 6.667 L 6.667 6.667 L 6.667 6.667 L 6.667 6.667 L 6.667 6.667 L 6.667 6.667 L 6.667 6.667 L 6.667 6.667 L 6.667 6.667 L 6.667 6.667 L 6.667 6.667 L 6.667 6.667 L 6.667 6.667 L 6.667 6.667 L 6.667 6.667 L 6.667 6.667 L 6.667 6.667 L 6.667 6.667 L 6.667 6.667 L 6.667 6.667 L 6.667 6.667 L 6.667 6.667 L 6.667 6.667 L 6.667 6.667 L 6.667 6.667 L 6.667 6.667 L 6.667 6.667 L 6.667 6.667 L 6.667 6.667 L 6.667 6.667 L 6.667 6.667 L 6.667 6.667 L 6.667 6.667 L 6.667 6.667 L 6.667 6.667 L 6.667 6.667 L 6.667 6.667 L 6.667 6.667 L 6.667 6.667 L 6.667 6.667 L 6.667 6.667 L 6.667 6.667 L 6.667 6.667 L 6.667 6.667 L 6.667 6.667 L 6.667 6.667 L 6.667 6.667 L 6.667 6.667 L 6.667 6.667 L 6.667 6.667 L 6.667 6.667 Z  M 13.333 6.667 L 16.667 6.667 L 16.667 10 L 13.333 10 L 13.333 6.667 L 13.333 6.667 L 13.333 6.667 L 13.333 6.667 L 13.333 6.667 L 13.333 6.667 L 13.333 6.667 L 13.333 6.667 L 13.333 6.667 L 13.333 6.667 L 13.333 6.667 L 13.333 6.667 L 13.333 6.667 L 13.333 6.667 L 13.333 6.667 L 13.333 6.667 L 13.333 6.667 L 13.333 6.667 L 13.333 6.667 L 13.333 6.667 L 13.333 6.667 L 13.333 6.667 L 13.333 6.667 L 13.333 6.667 L 13.333 6.667 L 13.333 6.667 L 13.333 6.667 L 13.333 6.667 L 13.333 6.667 L 13.333 6.667 L 13.333 6.667 L 13.333 6.667 L 13.333 6.667 L 13.333 6.667 L 13.333 6.667 L 13.333 6.667 L 13.333 6.667 L 13.333 6.667 L 13.333 6.667 L 13.333 6.667 L 13.333 6.667 L 13.333 6.667 L 13.333 6.667 L 13.333 6.667 L 13.333 6.667 L 13.333 6.667 L 13.333 6.667 L 13.333 6.667 L 13.333 6.667 L 13.333 6.667 L 13.333 6.667 L 13.333 6.667 L 13.333 6.667 L 13.333 6.667 Z  M 20 6.667 L 23.333 6.667 L 23.333 10 L 20 10 L 20 6.667 L 20 6.667 L 20 6.667 L 20 6.667 L 20 6.667 L 20 6.667 L 20 6.667 L 20 6.667 L 20 6.667 L 20 6.667 L 20 6.667 L 20 6.667 L 20 6.667 L 20 6.667 L 20 6.667 L 20 6.667 L 20 6.667 L 20 6.667 L 20 6.667 L 20 6.667 L 20 6.667 L 20 6.667 L 20 6.667 L 20 6.667 L 20 6.667 L 20 6.667 L 20 6.667 L 20 6.667 L 20 6.667 L 20 6.667 L 20 6.667 L 20 6.667 L 20 6.667 L 20 6.667 L 20 6.667 L 20 6.667 L 20 6.667 L 20 6.667 L 20 6.667 L 20 6.667 L 20 6.667 L 20 6.667 L 20 6.667 L 20 6.667 L 20 6.667 L 20 6.667 L 20 6.667 L 20 6.667 L 20 6.667 L 20 6.667 L 20 6.667 L 20 6.667 L 20 6.667 Z  M 26.667 6.667 L 30 6.667 L 30 10 L 26.667 10 L 26.667 6.667 L 26.667 6.667 L 26.667 6.667 L 26.667 6.667 L 26.667 6.667 L 26.667 6.667 L 26.667 6.667 L 26.667 6.667 L 26.667 6.667 L 26.667 6.667 L 26.667 6.667 L 26.667 6.667 L 26.667 6.667 L 26.667 6.667 L 26.667 6.667 L 26.667 6.667 L 26.667 6.667 L 26.667 6.667 L 26.667 6.667 L 26.667 6.667 L 26.667 6.667 L 26.667 6.667 L 26.667 6.667 L 26.667 6.667 L 26.667 6.667 L 26.667 6.667 L 26.667 6.667 L 26.667 6.667 L 26.667 6.667 L 26.667 6.667 L 26.667 6.667 L 26.667 6.667 L 26.667 6.667 L 26.667 6.667 L 26.667 6.667 L 26.667 6.667 L 26.667 6.667 L 26.667 6.667 L 26.667 6.667 L 26.667 6.667 L 26.667 6.667 L 26.667 6.667 L 26.667 6.667 L 26.667 6.667 L 26.667 6.667 L 26.667 6.667 L 26.667 6.667 L 26.667 6.667 L 26.667 6.667 L 26.667 6.667 L 26.667 6.667 L 26.667 6.667 Z  M 33.333 6.667 L 36.667 6.667 L 36.667 10 L 33.333 10 L 33.333 6.667 L 33.333 6.667 L 33.333 6.667 L 33.333 6.667 L 33.333 6.667 L 33.333 6.667 L 33.333 6.667 L 33.333 6.667 L 33.333 6.667 L 33.333 6.667 L 33.333 6.667 L 33.333 6.667 L 33.333 6.667 L 33.333 6.667 L 33.333 6.667 L 33.333 6.667 L 33.333 6.667 L 33.333 6.667 L 33.333 6.667 L 33.333 6.667 L 33.333 6.667 L 33.333 6.667 L 33.333 6.667 L 33.333 6.667 L 33.333 6.667 L 33.333 6.667 L 33.333 6.667 L 33.333 6.667 L 33.333 6.667 L 33.333 6.667 L 33.333 6.667 L 33.333 6.667 L 33.333 6.667 L 33.333 6.667 L 33.333 6.667 L 33.333 6.667 L 33.333 6.667 L 33.333 6.667 L 33.333 6.667 L 33.333 6.667 L 33.333 6.667 L 33.333 6.667 L 33.333 6.667 L 33.333 6.667 L 33.333 6.667 L 33.333 6.667 L 33.333 6.667 L 33.333 6.667 L 33.333 6.667 L 33.333 6.667 L 33.333 6.667 Z  M 40 6.667 L 43.333 6.667 L 43.333 10 L 40 10 L 40 6.667 L 40 6.667 L 40 6.667 L 40 6.667 L 40 6.667 L 40 6.667 L 40 6.667 L 40 6.667 L 40 6.667 L 40 6.667 L 40 6.667 L 40 6.667 L 40 6.667 L 40 6.667 L 40 6.667 L 40 6.667 L 40 6.667 L 40 6.667 L 40 6.667 L 40 6.667 L 40 6.667 L 40 6.667 L 40 6.667 L 40 6.667 L 40 6.667 L 40 6.667 L 40 6.667 L 40 6.667 L 40 6.667 L 40 6.667 L 40 6.667 L 40 6.667 L 40 6.667 L 40 6.667 L 40 6.667 L 40 6.667 L 40 6.667 L 40 6.667 L 40 6.667 L 40 6.667 L 40 6.667 L 40 6.667 L 40 6.667 L 40 6.667 L 40 6.667 L 40 6.667 L 40 6.667 L 40 6.667 L 40 6.667 L 40 6.667 Z  M 46.667 6.667 L 50 6.667 L 50 10 L 46.667 10 L 46.667 6.667 L 46.667 6.667 L 46.667 6.667 L 46.667 6.667 L 46.667 6.667 L 46.667 6.667 L 46.667 6.667 L 46.667 6.667 L 46.667 6.667 L 46.667 6.667 L 46.667 6.667 L 46.667 6.667 L 46.667 6.667 L 46.667 6.667 L 46.667 6.667 L 46.667 6.667 L 46.667 6.667 L 46.667 6.667 L 46.667 6.667 L 46.667 6.667 L 46.667 6.667 L 46.667 6.667 L 46.667 6.667 L 46.667 6.667 L 46.667 6.667 L 46.667 6.667 L 46.667 6.667 L 46.667 6.667 L 46.667 6.667 L 46.667 6.667 L 46.667 6.667 L 46.667 6.667 L 46.667 6.667 L 46.667 6.667 L 46.667 6.667 L 46.667 6.667 L 46.667 6.667 L 46.667 6.667 L 46.667 6.667 L 46.667 6.667 L 46.667 6.667 L 46.667 6.667 L 46.667 6.667 L 46.667 6.667 L 46.667 6.667 L 46.667 6.667 L 46.667 6.667 L 46.667 6.667 L 46.667 6.667 Z  M 0 13.333 L 3.333 13.333 L 3.333 16.667 L 0 16.667 L 0 13.333 L 0 13.333 L 0 13.333 L 0 13.333 L 0 13.333 L 0 13.333 L 0 13.333 L 0 13.333 L 0 13.333 L 0 13.333 L 0 13.333 L 0 13.333 L 0 13.333 L 0 13.333 L 0 13.333 L 0 13.333 L 0 13.333 L 0 13.333 L 0 13.333 L 0 13.333 L 0 13.333 L 0 13.333 L 0 13.333 L 0 13.333 L 0 13.333 L 0 13.333 L 0 13.333 L 0 13.333 L 0 13.333 L 0 13.333 L 0 13.333 L 0 13.333 L 0 13.333 L 0 13.333 L 0 13.333 L 0 13.333 L 0 13.333 L 0 13.333 L 0 13.333 L 0 13.333 L 0 13.333 L 0 13.333 L 0 13.333 L 0 13.333 L 0 13.333 L 0 13.333 L 0 13.333 L 0 13.333 Z  M 6.667 13.333 L 10 13.333 L 10 16.667 L 6.667 16.667 L 6.667 13.333 L 6.667 13.333 L 6.667 13.333 L 6.667 13.333 L 6.667 13.333 L 6.667 13.333 L 6.667 13.333 L 6.667 13.333 L 6.667 13.333 L 6.667 13.333 L 6.667 13.333 L 6.667 13.333 L 6.667 13.333 L 6.667 13.333 L 6.667 13.333 L 6.667 13.333 L 6.667 13.333 L 6.667 13.333 L 6.667 13.333 L 6.667 13.333 L 6.667 13.333 L 6.667 13.333 L 6.667 13.333 L 6.667 13.333 L 6.667 13.333 L 6.667 13.333 L 6.667 13.333 L 6.667 13.333 L 6.667 13.333 L 6.667 13.333 L 6.667 13.333 L 6.667 13.333 L 6.667 13.333 L 6.667 13.333 L 6.667 13.333 L 6.667 13.333 L 6.667 13.333 L 6.667 13.333 L 6.667 13.333 L 6.667 13.333 L 6.667 13.333 L 6.667 13.333 L 6.667 13.333 L 6.667 13.333 L 6.667 13.333 L 6.667 13.333 L 6.667 13.333 Z  M 13.333 13.333 L 16.667 13.333 L 16.667 16.667 L 13.333 16.667 L 13.333 13.333 L 13.333 13.333 L 13.333 13.333 L 13.333 13.333 L 13.333 13.333 L 13.333 13.333 L 13.333 13.333 L 13.333 13.333 L 13.333 13.333 L 13.333 13.333 L 13.333 13.333 L 13.333 13.333 L 13.333 13.333 L 13.333 13.333 L 13.333 13.333 L 13.333 13.333 L 13.333 13.333 L 13.333 13.333 L 13.333 13.333 L 13.333 13.333 L 13.333 13.333 L 13.333 13.333 L 13.333 13.333 L 13.333 13.333 L 13.333 13.333 L 13.333 13.333 L 13.333 13.333 L 13.333 13.333 L 13.333 13.333 L 13.333 13.333 L 13.333 13.333 L 13.333 13.333 L 13.333 13.333 L 13.333 13.333 L 13.333 13.333 L 13.333 13.333 L 13.333 13.333 L 13.333 13.333 L 13.333 13.333 L 13.333 13.333 L 13.333 13.333 L 13.333 13.333 L 13.333 13.333 L 13.333 13.333 L 13.333 13.333 L 13.333 13.333 Z  M 20 13.333 L 23.333 13.333 L 23.333 16.667 L 20 16.667 L 20 13.333 L 20 13.333 L 20 13.333 L 20 13.333 L 20 13.333 L 20 13.333 L 20 13.333 L 20 13.333 L 20 13.333 L 20 13.333 L 20 13.333 L 20 13.333 L 20 13.333 L 20 13.333 L 20 13.333 L 20 13.333 L 20 13.333 L 20 13.333 L 20 13.333 L 20 13.333 L 20 13.333 L 20 13.333 L 20 13.333 L 20 13.333 L 20 13.333 L 20 13.333 L 20 13.333 L 20 13.333 L 20 13.333 L 20 13.333 L 20 13.333 L 20 13.333 L 20 13.333 L 20 13.333 L 20 13.333 L 20 13.333 L 20 13.333 L 20 13.333 L 20 13.333 L 20 13.333 L 20 13.333 L 20 13.333 L 20 13.333 L 20 13.333 L 20 13.333 Z  M 26.667 13.333 L 30 13.333 L 30 16.667 L 26.667 16.667 L 26.667 13.333 L 26.667 13.333 L 26.667 13.333 L 26.667 13.333 L 26.667 13.333 L 26.667 13.333 L 26.667 13.333 L 26.667 13.333 L 26.667 13.333 L 26.667 13.333 L 26.667 13.333 L 26.667 13.333 L 26.667 13.333 L 26.667 13.333 L 26.667 13.333 L 26.667 13.333 L 26.667 13.333 L 26.667 13.333 L 26.667 13.333 L 26.667 13.333 L 26.667 13.333 L 26.667 13.333 L 26.667 13.333 L 26.667 13.333 L 26.667 13.333 L 26.667 13.333 L 26.667 13.333 L 26.667 13.333 L 26.667 13.333 L 26.667 13.333 L 26.667 13.333 L 26.667 13.333 L 26.667 13.333 L 26.667 13.333 L 26.667 13.333 L 26.667 13.333 L 26.667 13.333 L 26.667 13.333 L 26.667 13.333 L 26.667 13.333 L 26.667 13.333 L 26.667 13.333 L 26.667 13.333 L 26.667 13.333 Z  M 33.333 13.333 L 36.667 13.333 L 36.667 16.667 L 33.333 16.667 L 33.333 13.333 L 33.333 13.333 L 33.333 13.333 L 33.333 13.333 L 33.333 13.333 L 33.333 13.333 L 33.333 13.333 L 33.333 13.333 L 33.333 13.333 L 33.333 13.333 L 33.333 13.333 L 33.333 13.333 L 33.333 13.333 L 33.333 13.333 L 33.333 13.333 L 33.333 13.333 L 33.333 13.333 L 33.333 13.333 L 33.333 13.333 L 33.333 13.333 L 33.333 13.333 L 33.333 13.333 L 33.333 13.333 L 33.333 13.333 L 33.333 13.333 L 33.333 13.333 L 33.333 13.333 L 33.333 13.333 L 33.333 13.333 L 33.333 13.333 L 33.333 13.333 L 33.333 13.333 L 33.333 13.333 L 33.333 13.333 L 33.333 13.333 L 33.333 13.333 L 33.333 13.333 L 33.333 13.333 L 33.333 13.333 L 33.333 13.333 L 33.333 13.333 L 33.333 13.333 L 33.333 13.333 Z  M 40 13.333 L 43.333 13.333 L 43.333 16.667 L 40 16.667 L 40 13.333 L 40 13.333 L 40 13.333 L 40 13.333 L 40 13.333 L 40 13.333 L 40 13.333 L 40 13.333 L 40 13.333 L 40 13.333 L 40 13.333 L 40 13.333 L 40 13.333 L 40 13.333 L 40 13.333 L 40 13.333 L 40 13.333 L 40 13.333 L 40 13.333 L 40 13.333 L 40 13.333 L 40 13.333 L 40 13.333 L 40 13.333 L 40 13.333 L 40 13.333 L 40 13.333 L 40 13.333 L 40 13.333 L 40 13.333 L 40 13.333 L 40 13.333 L 40 13.333 L 40 13.333 L 40 13.333 L 40 13.333 L 40 13.333 L 40 13.333 L 40 13.333 L 40 13.333 L 40 13.333 L 40 13.333 Z  M 46.667 13.333 L 50 13.333 L 50 16.667 L 46.667 16.667 L 46.667 13.333 L 46.667 13.333 L 46.667 13.333 L 46.667 13.333 L 46.667 13.333 L 46.667 13.333 L 46.667 13.333 L 46.667 13.333 L 46.667 13.333 L 46.667 13.333 L 46.667 13.333 L 46.667 13.333 L 46.667 13.333 L 46.667 13.333 L 46.667 13.333 L 46.667 13.333 L 46.667 13.333 L 46.667 13.333 L 46.667 13.333 L 46.667 13.333 L 46.667 13.333 L 46.667 13.333 L 46.667 13.333 L 46.667 13.333 L 46.667 13.333 L 46.667 13.333 L 46.667 13.333 L 46.667 13.333 L 46.667 13.333 L 46.667 13.333 L 46.667 13.333 L 46.667 13.333 L 46.667 13.333 L 46.667 13.333 L 46.667 13.333 L 46.667 13.333 L 46.667 13.333 L 46.667 13.333 L 46.667 13.333 L 46.667 13.333 L 46.667 13.333 Z  M 0 20 L 3.333 20 L 3.333 23.333 L 0 23.333 L 0 20 L 0 20 L 0 20 L 0 20 L 0 20 L 0 20 L 0 20 L 0 20 L 0 20 L 0 20 L 0 20 L 0 20 L 0 20 L 0 20 L 0 20 L 0 20 L 0 20 L 0 20 L 0 20 L 0 20 L 0 20 L 0 20 L 0 20 L 0 20 L 0 20 L 0 20 L 0 20 L 0 20 L 0 20 L 0 20 L 0 20 L 0 20 L 0 20 L 0 20 L 0 20 L 0 20 L 0 20 L 0 20 L 0 20 L 0 20 Z  M 6.667 20 L 10 20 L 10 23.333 L 6.667 23.333 L 6.667 20 L 6.667 20 L 6.667 20 L 6.667 20 L 6.667 20 L 6.667 20 L 6.667 20 L 6.667 20 L 6.667 20 L 6.667 20 L 6.667 20 L 6.667 20 L 6.667 20 L 6.667 20 L 6.667 20 L 6.667 20 L 6.667 20 L 6.667 20 L 6.667 20 L 6.667 20 L 6.667 20 L 6.667 20 L 6.667 20 L 6.667 20 L 6.667 20 L 6.667 20 L 6.667 20 L 6.667 20 L 6.667 20 L 6.667 20 L 6.667 20 L 6.667 20 L 6.667 20 L 6.667 20 L 6.667 20 L 6.667 20 L 6.667 20 L 6.667 20 L 6.667 20 Z  M 13.333 20 L 16.667 20 L 16.667 23.333 L 13.333 23.333 L 13.333 20 L 13.333 20 L 13.333 20 L 13.333 20 L 13.333 20 L 13.333 20 L 13.333 20 L 13.333 20 L 13.333 20 L 13.333 20 L 13.333 20 L 13.333 20 L 13.333 20 L 13.333 20 L 13.333 20 L 13.333 20 L 13.333 20 L 13.333 20 L 13.333 20 L 13.333 20 L 13.333 20 L 13.333 20 L 13.333 20 L 13.333 20 L 13.333 20 L 13.333 20 L 13.333 20 L 13.333 20 L 13.333 20 L 13.333 20 L 13.333 20 L 13.333 20 L 13.333 20 L 13.333 20 L 13.333 20 L 13.333 20 L 13.333 20 L 13.333 20 Z  M 20 20 L 23.333 20 L 23.333 23.333 L 20 23.333 L 20 20 L 20 20 L 20 20 L 20 20 L 20 20 L 20 20 L 20 20 L 20 20 L 20 20 L 20 20 L 20 20 L 20 20 L 20 20 L 20 20 L 20 20 L 20 20 L 20 20 L 20 20 L 20 20 L 20 20 L 20 20 L 20 20 L 20 20 L 20 20 L 20 20 L 20 20 L 20 20 L 20 20 L 20 20 L 20 20 L 20 20 L 20 20 L 20 20 L 20 20 L 20 20 L 20 20 L 20 20 Z  M 26.667 20 L 30 20 L 30 23.333 L 26.667 23.333 L 26.667 20 L 26.667 20 L 26.667 20 L 26.667 20 L 26.667 20 L 26.667 20 L 26.667 20 L 26.667 20 L 26.667 20 L 26.667 20 L 26.667 20 L 26.667 20 L 26.667 20 L 26.667 20 L 26.667 20 L 26.667 20 L 26.667 20 L 26.667 20 L 26.667 20 L 26.667 20 L 26.667 20 L 26.667 20 L 26.667 20 L 26.667 20 L 26.667 20 L 26.667 20 L 26.667 20 L 26.667 20 L 26.667 20 L 26.667 20 L 26.667 20 L 26.667 20 L 26.667 20 L 26.667 20 L 26.667 20 L 26.667 20 Z  M 33.333 20 L 36.667 20 L 36.667 23.333 L 33.333 23.333 L 33.333 20 L 33.333 20 L 33.333 20 L 33.333 20 L 33.333 20 L 33.333 20 L 33.333 20 L 33.333 20 L 33.333 20 L 33.333 20 L 33.333 20 L 33.333 20 L 33.333 20 L 33.333 20 L 33.333 20 L 33.333 20 L 33.333 20 L 33.333 20 L 33.333 20 L 33.333 20 L 33.333 20 L 33.333 20 L 33.333 20 L 33.333 20 L 33.333 20 L 33.333 20 L 33.333 20 L 33.333 20 L 33.333 20 L 33.333 20 L 33.333 20 L 33.333 20 L 33.333 20 L 33.333 20 L 33.333 20 Z  M 0 26.667 L 3.333 26.667 L 3.333 30 L 0 30 L 0 26.667 L 0 26.667 L 0 26.667 L 0 26.667 L 0 26.667 L 0 26.667 L 0 26.667 L 0 26.667 L 0 26.667 L 0 26.667 L 0 26.667 L 0 26.667 L 0 26.667 L 0 26.667 L 0 26.667 L 0 26.667 L 0 26.667 L 0 26.667 L 0 26.667 L 0 26.667 L 0 26.667 L 0 26.667 L 0 26.667 L 0 26.667 L 0 26.667 L 0 26.667 L 0 26.667 L 0 26.667 L 0 26.667 L 0 26.667 L 0 26.667 L 0 26.667 Z  M 6.667 26.667 L 10 26.667 L 10 30 L 6.667 30 L 6.667 26.667 L 6.667 26.667 L 6.667 26.667 L 6.667 26.667 L 6.667 26.667 L 6.667 26.667 L 6.667 26.667 L 6.667 26.667 L 6.667 26.667 L 6.667 26.667 L 6.667 26.667 L 6.667 26.667 L 6.667 26.667 L 6.667 26.667 L 6.667 26.667 L 6.667 26.667 L 6.667 26.667 L 6.667 26.667 L 6.667 26.667 L 6.667 26.667 L 6.667 26.667 L 6.667 26.667 L 6.667 26.667 L 6.667 26.667 L 6.667 26.667 L 6.667 26.667 L 6.667 26.667 L 6.667 26.667 L 6.667 26.667 L 6.667 26.667 L 6.667 26.667 Z  M 13.333 26.667 L 16.667 26.667 L 16.667 30 L 13.333 30 L 13.333 26.667 L 13.333 26.667 L 13.333 26.667 L 13.333 26.667 L 13.333 26.667 L 13.333 26.667 L 13.333 26.667 L 13.333 26.667 L 13.333 26.667 L 13.333 26.667 L 13.333 26.667 L 13.333 26.667 L 13.333 26.667 L 13.333 26.667 L 13.333 26.667 L 13.333 26.667 L 13.333 26.667 L 13.333 26.667 L 13.333 26.667 L 13.333 26.667 L 13.333 26.667 L 13.333 26.667 L 13.333 26.667 L 13.333 26.667 L 13.333 26.667 L 13.333 26.667 L 13.333 26.667 L 13.333 26.667 L 13.333 26.667 L 13.333 26.667 Z  M 20 26.667 L 23.333 26.667 L 23.333 30 L 20 30 L 20 26.667 L 20 26.667 L 20 26.667 L 20 26.667 L 20 26.667 L 20 26.667 L 20 26.667 L 20 26.667 L 20 26.667 L 20 26.667 L 20 26.667 L 20 26.667 L 20 26.667 L 20 26.667 L 20 26.667 L 20 26.667 L 20 26.667 L 20 26.667 L 20 26.667 L 20 26.667 L 20 26.667 L 20 26.667 L 20 26.667 L 20 26.667 L 20 26.667 L 20 26.667 L 20 26.667 L 20 26.667 L 20 26.667 Z  M 26.667 26.667 L 30 26.667 L 30 30 L 26.667 30 L 26.667 26.667 L 26.667 26.667 L 26.667 26.667 L 26.667 26.667 L 26.667 26.667 L 26.667 26.667 L 26.667 26.667 L 26.667 26.667 L 26.667 26.667 L 26.667 26.667 L 26.667 26.667 L 26.667 26.667 L 26.667 26.667 L 26.667 26.667 L 26.667 26.667 L 26.667 26.667 L 26.667 26.667 L 26.667 26.667 L 26.667 26.667 L 26.667 26.667 L 26.667 26.667 L 26.667 26.667 L 26.667 26.667 L 26.667 26.667 L 26.667 26.667 L 26.667 26.667 L 26.667 26.667 L 26.667 26.667 Z  M 33.333 26.667 L 36.667 26.667 L 36.667 30 L 33.333 30 L 33.333 26.667 L 33.333 26.667 L 33.333 26.667 L 33.333 26.667 L 33.333 26.667 L 33.333 26.667 L 33.333 26.667 L 33.333 26.667 L 33.333 26.667 L 33.333 26.667 L 33.333 26.667 L 33.333 26.667 L 33.333 26.667 L 33.333 26.667 L 33.333 26.667 L 33.333 26.667 L 33.333 26.667 L 33.333 26.667 L 33.333 26.667 L 33.333 26.667 L 33.333 26.667 L 33.333 26.667 L 33.333 26.667 L 33.333 26.667 L 33.333 26.667 L 33.333 26.667 L 33.333 26.667 Z  M 40 26.667 L 43.333 26.667 L 43.333 30 L 40 30 L 40 26.667 L 40 26.667 L 40 26.667 L 40 26.667 L 40 26.667 L 40 26.667 L 40 26.667 L 40 26.667 L 40 26.667 L 40 26.667 L 40 26.667 L 40 26.667 L 40 26.667 L 40 26.667 L 40 26.667 L 40 26.667 L 40 26.667 L 40 26.667 L 40 26.667 L 40 26.667 L 40 26.667 L 40 26.667 L 40 26.667 L 40 26.667 L 40 26.667 L 40 26.667 Z  M 46.667 26.667 L 50 26.667 L 50 30 L 46.667 30 L 46.667 26.667 L 46.667 26.667 L 46.667 26.667 L 46.667 26.667 L 46.667 26.667 L 46.667 26.667 L 46.667 26.667 L 46.667 26.667 L 46.667 26.667 L 46.667 26.667 L 46.667 26.667 L 46.667 26.667 L 46.667 26.667 L 46.667 26.667 L 46.667 26.667 L 46.667 26.667 L 46.667 26.667 L 46.667 26.667 L 46.667 26.667 L 46.667 26.667 L 46.667 26.667 L 46.667 26.667 L 46.667 26.667 L 46.667 26.667 L 46.667 26.667 Z  M 0 33.333 L 3.333 33.333 L 3.333 36.667 L 0 36.667 L 0 33.333 L 0 33.333 L 0 33.333 L 0 33.333 L 0 33.333 L 0 33.333 L 0 33.333 L 0 33.333 L 0 33.333 L 0 33.333 L 0 33.333 L 0 33.333 L 0 33.333 L 0 33.333 L 0 33.333 L 0 33.333 L 0 33.333 L 0 33.333 L 0 33.333 L 0 33.333 L 0 33.333 L 0 33.333 L 0 33.333 L 0 33.333 Z  M 6.667 33.333 L 10 33.333 L 10 36.667 L 6.667 36.667 L 6.667 33.333 L 6.667 33.333 L 6.667 33.333 L 6.667 33.333 L 6.667 33.333 L 6.667 33.333 L 6.667 33.333 L 6.667 33.333 L 6.667 33.333 L 6.667 33.333 L 6.667 33.333 L 6.667 33.333 L 6.667 33.333 L 6.667 33.333 L 6.667 33.333 L 6.667 33.333 L 6.667 33.333 L 6.667 33.333 L 6.667 33.333 L 6.667 33.333 L 6.667 33.333 L 6.667 33.333 L 6.667 33.333 Z  M 13.333 33.333 L 16.667 33.333 L 16.667 36.667 L 13.333 36.667 L 13.333 33.333 L 13.333 33.333 L 13.333 33.333 L 13.333 33.333 L 13.333 33.333 L 13.333 33.333 L 13.333 33.333 L 13.333 33.333 L 13.333 33.333 L 13.333 33.333 L 13.333 33.333 L 13.333 33.333 L 13.333 33.333 L 13.333 33.333 L 13.333 33.333 L 13.333 33.333 L 13.333 33.333 L 13.333 33.333 L 13.333 33.333 L 13.333 33.333 L 13.333 33.333 L 13.333 33.333 Z  M 20 33.333 L 23.333 33.333 L 23.333 36.667 L 20 36.667 L 20 33.333 L 20 33.333 L 20 33.333 L 20 33.333 L 20 33.333 L 20 33.333 L 20 33.333 L 20 33.333 L 20 33.333 L 20 33.333 L 20 33.333 L 20 33.333 L 20 33.333 L 20 33.333 L 20 33.333 L 20 33.333 L 20 33.333 L 20 33.333 L 20 33.333 L 20 33.333 L 20 33.333 Z  M 26.667 33.333 L 30 33.333 L 30 36.667 L 26.667 36.667 L 26.667 33.333 L 26.667 33.333 L 26.667 33.333 L 26.667 33.333 L 26.667 33.333 L 26.667 33.333 L 26.667 33.333 L 26.667 33.333 L 26.667 33.333 L 26.667 33.333 L 26.667 33.333 L 26.667 33.333 L 26.667 33.333 L 26.667 33.333 L 26.667 33.333 L 26.667 33.333 L 26.667 33.333 L 26.667 33.333 L 26.667 33.333 L 26.667 33.333 Z  M 33.333 33.333 L 36.667 33.333 L 36.667 36.667 L 33.333 36.667 L 33.333 33.333 L 33.333 33.333 L 33.333 33.333 L 33.333 33.333 L 33.333 33.333 L 33.333 33.333 L 33.333 33.333 L 33.333 33.333 L 33.333 33.333 L 33.333 33.333 L 33.333 33.333 L 33.333 33.333 L 33.333 33.333 L 33.333 33.333 L 33.333 33.333 L 33.333 33.333 L 33.333 33.333 L 33.333 33.333 L 33.333 33.333 Z  M 40 33.333 L 43.333 33.333 L 43.333 36.667 L 40 36.667 L 40 33.333 L 40 33.333 L 40 33.333 L 40 33.333 L 40 33.333 L 40 33.333 L 40 33.333 L 40 33.333 L 40 33.333 L 40 33.333 L 40 33.333 L 40 33.333 L 40 33.333 L 40 33.333 L 40 33.333 L 40 33.333 L 40 33.333 L 40 33.333 Z  M 46.667 33.333 L 50 33.333 L 50 36.667 L 46.667 36.667 L 46.667 33.333 L 46.667 33.333 L 46.667 33.333 L 46.667 33.333 L 46.667 33.333 L 46.667 33.333 L 46.667 33.333 L 46.667 33.333 L 46.667 33.333 L 46.667 33.333 L 46.667 33.333 L 46.667 33.333 L 46.667 33.333 L 46.667 33.333 L 46.667 33.333 L 46.667 33.333 L 46.667 33.333 Z  M 0 40 L 3.333 40 L 3.333 43.333 L 0 43.333 L 0 40 L 0 40 L 0 40 L 0 40 L 0 40 L 0 40 L 0 40 L 0 40 L 0 40 L 0 40 L 0 40 L 0 40 L 0 40 L 0 40 L 0 40 L 0 40 Z  M 6.667 40 L 10 40 L 10 43.333 L 6.667 43.333 L 6.667 40 L 6.667 40 L 6.667 40 L 6.667 40 L 6.667 40 L 6.667 40 L 6.667 40 L 6.667 40 L 6.667 40 L 6.667 40 L 6.667 40 L 6.667 40 L 6.667 40 L 6.667 40 L 6.667 40 Z  M 13.333 40 L 16.667 40 L 16.667 43.333 L 13.333 43.333 L 13.333 40 L 13.333 40 L 13.333 40 L 13.333 40 L 13.333 40 L 13.333 40 L 13.333 40 L 13.333 40 L 13.333 40 L 13.333 40 L 13.333 40 L 13.333 40 L 13.333 40 L 13.333 40 Z  M 20 40 L 23.333 40 L 23.333 43.333 L 20 43.333 L 20 40 L 20 40 L 20 40 L 20 40 L 20 40 L 20 40 L 20 40 L 20 40 L 20 40 L 20 40 L 20 40 L 20 40 L 20 40 Z  M 26.667 40 L 30 40 L 30 43.333 L 26.667 43.333 L 26.667 40 L 26.667 40 L 26.667 40 L 26.667 40 L 26.667 40 L 26.667 40 L 26.667 40 L 26.667 40 L 26.667 40 L 26.667 40 L 26.667 40 L 26.667 40 Z  M 33.333 40 L 36.667 40 L 36.667 43.333 L 33.333 43.333 L 33.333 40 L 33.333 40 L 33.333 40 L 33.333 40 L 33.333 40 L 33.333 40 L 33.333 40 L 33.333 40 L 33.333 40 L 33.333 40 L 33.333 40 Z  M 40 40 L 43.333 40 L 43.333 43.333 L 40 43.333 L 40 40 L 40 40 L 40 40 L 40 40 L 40 40 L 40 40 L 40 40 L 40 40 L 40 40 L 40 40 Z  M 46.667 40 L 50 40 L 50 43.333 L 46.667 43.333 L 46.667 40 L 46.667 40 L 46.667 40 L 46.667 40 L 46.667 40 L 46.667 40 L 46.667 40 L 46.667 40 L 46.667 40 Z  M 0 46.667 L 3.333 46.667 L 3.333 50 L 0 50 L 0 46.667 L 0 46.667 L 0 46.667 L 0 46.667 L 0 46.667 L 0 46.667 L 0 46.667 L 0 46.667 Z  M 6.667 46.667 L 10 46.667 L 10 50 L 6.667 50 L 6.667 46.667 L 6.667 46.667 L 6.667 46.667 L 6.667 46.667 L 6.667 46.667 L 6.667 46.667 L 6.667 46.667 Z  M 13.333 46.667 L 16.667 46.667 L 16.667 50 L 13.333 50 L 13.333 46.667 L 13.333 46.667 L 13.333 46.667 L 13.333 46.667 L 13.333 46.667 L 13.333 46.667 Z  M 20 46.667 L 23.333 46.667 L 23.333 50 L 20 50 L 20 46.667 L 20 46.667 L 20 46.667 L 20 46.667 L 20 46.667 Z  M 26.667 46.667 L 30 46.667 L 30 50 L 26.667 50 L 26.667 46.667 L 26.667 46.667 L 26.667 46.667 L 26.667 46.667 Z  M 33.333 46.667 L 36.667 46.667 L 36.667 50 L 33.333 50 L 33.333 46.667 L 33.333 46.667 L 33.333 46.667 Z  M 40 46.667 L 43.333 46.667 L 43.333 50 L 40 50 L 40 46.667 L 40 46.667 Z  M 46.667 46.667 L 50 46.667 L 50 50 L 46.667 50 L 46.667 46.667 Z " fill-rule="evenodd" fill="rgb(139,139,139)"/><path d=" M 43.176 20 L 43.333 20 L 43.333 20.368 L 43.333 20.368 L 43.176 20 Z  M 36.035 3.333 L 36.667 3.333 L 36.667 0 L 33.333 0 L 33.333 0 L 33.333 0 L 33.333 0 L 33.333 0 L 33.333 0 L 33.333 0 L 33.333 0 L 33.333 0 L 33.333 0 L 33.333 0 L 33.333 0 L 33.333 0 L 33.333 0 L 33.333 0 L 33.333 0 L 33.333 0 L 33.333 0 L 33.333 0 L 33.333 0 L 33.333 0 L 33.333 0 L 33.333 0 L 33.333 0 L 33.333 0 L 33.333 0 L 33.333 0 L 33.333 0 L 33.333 0 L 33.333 0 L 33.333 0 L 33.333 0 L 33.333 0 L 33.333 0 L 33.333 0 L 33.333 0 L 33.333 0 L 33.333 0 L 33.333 0 L 33.333 0 L 33.333 0 L 33.333 0 L 33.333 0 L 33.333 0 L 33.333 0 L 33.333 0 L 33.333 0 L 33.333 0 L 33.333 0 L 33.333 0 L 33.333 0 L 33.333 0 L 33.333 0 L 33.333 0 L 33.333 0 L 33.333 0 L 33.333 0 L 33.333 0 L 33.333 0 L 33.333 0 L 33.333 3.333 L 34.817 3.333 L 35.847 2.895 L 36.035 3.333 Z  M 28.834 6.667 L 26.667 6.667 L 26.667 6.667 L 26.667 6.667 L 26.667 6.667 L 26.667 6.667 L 26.667 6.667 L 26.667 6.667 L 26.667 6.667 L 26.667 6.667 L 26.667 6.667 L 26.667 6.667 L 26.667 6.667 L 26.667 6.667 L 26.667 6.667 L 26.667 6.667 L 26.667 6.667 L 26.667 6.667 L 26.667 6.667 L 26.667 6.667 L 26.667 6.667 L 26.667 6.667 L 26.667 6.667 L 26.667 6.667 L 26.667 6.667 L 26.667 6.667 L 26.667 6.667 L 26.667 6.667 L 26.667 6.667 L 26.667 6.667 L 26.667 6.667 L 26.667 6.667 L 26.667 6.667 L 26.667 6.667 L 26.667 6.667 L 26.667 6.667 L 26.667 6.667 L 26.667 6.667 L 26.667 6.667 L 26.667 6.667 L 26.667 6.667 L 26.667 6.667 L 26.667 6.667 L 26.667 6.667 L 26.667 6.667 L 26.667 6.667 L 26.667 6.667 L 26.667 6.667 L 26.667 6.667 L 26.667 6.667 L 26.667 6.667 L 26.667 6.667 L 26.667 6.667 L 26.667 6.667 L 26.667 10 L 28.384 10 L 28.834 6.667 Z  M 10 15.74 L 10 13.333 L 6.667 13.333 L 6.667 13.333 L 6.667 13.333 L 6.667 13.333 L 6.667 13.333 L 6.667 13.333 L 6.667 13.333 L 6.667 13.333 L 6.667 13.333 L 6.667 13.333 L 6.667 13.333 L 6.667 13.333 L 6.667 13.333 L 6.667 13.333 L 6.667 13.333 L 6.667 13.333 L 6.667 13.333 L 6.667 13.333 L 6.667 13.333 L 6.667 13.333 L 6.667 13.333 L 6.667 13.333 L 6.667 13.333 L 6.667 13.333 L 6.667 13.333 L 6.667 13.333 L 6.667 13.333 L 6.667 13.333 L 6.667 13.333 L 6.667 13.333 L 6.667 13.333 L 6.667 13.333 L 6.667 13.333 L 6.667 13.333 L 6.667 13.333 L 6.667 13.333 L 6.667 13.333 L 6.667 13.333 L 6.667 13.333 L 6.667 13.333 L 6.667 13.333 L 6.667 13.333 L 6.667 13.333 L 6.667 13.333 L 6.667 13.333 L 6.667 13.333 L 6.667 13.333 L 6.667 13.333 L 6.667 15.299 L 8.372 14.574 L 10 15.74 Z  M 27.934 13.333 L 26.667 13.333 L 26.667 13.333 L 26.667 13.333 L 26.667 13.333 L 26.667 13.333 L 26.667 13.333 L 26.667 13.333 L 26.667 13.333 L 26.667 13.333 L 26.667 13.333 L 26.667 13.333 L 26.667 13.333 L 26.667 13.333 L 26.667 13.333 L 26.667 13.333 L 26.667 13.333 L 26.667 13.333 L 26.667 13.333 L 26.667 13.333 L 26.667 13.333 L 26.667 13.333 L 26.667 13.333 L 26.667 13.333 L 26.667 13.333 L 26.667 13.333 L 26.667 13.333 L 26.667 13.333 L 26.667 13.333 L 26.667 13.333 L 26.667 13.333 L 26.667 13.333 L 26.667 13.333 L 26.667 13.333 L 26.667 13.333 L 26.667 13.333 L 26.667 13.333 L 26.667 13.333 L 26.667 13.333 L 26.667 13.333 L 26.667 13.333 L 26.667 13.333 L 26.667 13.333 L 26.667 13.333 L 26.667 13.333 L 26.667 13.333 L 26.667 16.667 L 27.484 16.667 L 27.934 13.333 Z  M 41.748 16.667 L 41.748 16.667 L 43.333 16.667 L 43.333 13.333 L 40.319 13.333 L 41.748 16.667 Z  M 2.532 20 L 0 20 L 0 20 L 0 20 L 0 20 L 0 20 L 0 20 L 0 20 L 0 20 L 0 20 L 0 20 L 0 20 L 0 20 L 0 20 L 0 20 L 0 20 L 0 20 L 0 20 L 0 20 L 0 20 L 0 20 L 0 20 L 0 20 L 0 20 L 0 20 L 0 20 L 0 20 L 0 20 L 0 20 L 0 20 L 0 20 L 0 20 L 0 20 L 0 20 L 0 20 L 0 20 L 0 20 L 0 20 L 0 20 L 0 20 L 0 20 L 0 20 L 0 23.333 L 3.333 23.333 L 3.333 21.886 L 2.532 20 Z  M 16.667 20.519 L 16.667 20.519 L 16.667 20 L 15.942 20 L 16.667 20.519 Z  M 20.592 23.333 L 23.333 23.333 L 23.333 20 L 20 20 L 20 20 L 20 20 L 20 20 L 20 20 L 20 20 L 20 20 L 20 20 L 20 20 L 20 20 L 20 20 L 20 20 L 20 20 L 20 20 L 20 20 L 20 20 L 20 20 L 20 20 L 20 20 L 20 20 L 20 20 L 20 20 L 20 20 L 20 20 L 20 20 L 20 20 L 20 20 L 20 20 L 20 20 L 20 20 L 20 20 L 20 20 L 20 20 L 20 20 L 20 20 L 20 20 L 20 20 L 20 20 L 20 22.909 L 20.592 23.333 Z  M 27.035 20 L 26.667 20 L 26.667 20 L 26.667 20 L 26.667 20 L 26.667 20 L 26.667 20 L 26.667 20 L 26.667 20 L 26.667 20 L 26.667 20 L 26.667 20 L 26.667 20 L 26.667 20 L 26.667 20 L 26.667 20 L 26.667 20 L 26.667 20 L 26.667 20 L 26.667 20 L 26.667 20 L 26.667 20 L 26.667 20 L 26.667 20 L 26.667 20 L 26.667 20 L 26.667 20 L 26.667 20 L 26.667 20 L 26.667 20 L 26.667 20 L 26.667 20 L 26.667 20 L 26.667 20 L 26.667 20 L 26.667 20 L 26.667 20 L 26.667 20 L 26.667 22.727 L 27.035 20 Z  M 35.458 23.333 L 33.621 23.333 L 34.063 20.098 L 35.458 23.333 Z  M 6.667 29.728 L 6.667 29.728 L 6.667 30 L 6.782 30 L 6.667 29.728 Z  M 15.929 30 L 15.929 30 L 16.667 30 L 16.667 29.525 L 15.319 28.565 L 15.929 30 Z  M 47.46 30 L 50 30 L 50 26.667 L 46.667 26.667 L 46.667 26.667 L 46.667 26.667 L 46.667 26.667 L 46.667 26.667 L 46.667 26.667 L 46.667 26.667 L 46.667 26.667 L 46.667 26.667 L 46.667 26.667 L 46.667 26.667 L 46.667 26.667 L 46.667 26.667 L 46.667 26.667 L 46.667 26.667 L 46.667 26.667 L 46.667 26.667 L 46.667 26.667 L 46.667 26.667 L 46.667 26.667 L 46.667 26.667 L 46.667 26.667 L 46.667 26.667 L 46.667 26.667 L 46.667 26.667 L 46.667 26.667 L 46.667 28.148 L 47.46 30 Z  M 8.199 33.333 L 6.667 33.333 L 6.667 33.333 L 6.667 33.333 L 6.667 33.333 L 6.667 33.333 L 6.667 33.333 L 6.667 33.333 L 6.667 33.333 L 6.667 33.333 L 6.667 33.333 L 6.667 33.333 L 6.667 33.333 L 6.667 33.333 L 6.667 33.333 L 6.667 33.333 L 6.667 33.333 L 6.667 33.333 L 6.667 33.333 L 6.667 33.333 L 6.667 33.333 L 6.667 33.333 L 6.667 33.333 L 6.667 33.333 L 6.667 33.333 L 6.667 36.667 L 9.616 36.667 L 8.199 33.333 Z  M 22.013 33.333 L 20 33.333 L 20 33.333 L 20 33.333 L 20 33.333 L 20 33.333 L 20 33.333 L 20 33.333 L 20 33.333 L 20 33.333 L 20 33.333 L 20 33.333 L 20 33.333 L 20 33.333 L 20 33.333 L 20 33.333 L 20 33.333 L 20 33.333 L 20 33.333 L 20 33.333 L 20 33.333 L 20 33.333 L 20 33.333 L 20 36.667 L 23.333 36.667 L 23.333 34.274 L 22.013 33.333 Z  M 26.667 36.648 L 26.667 36.648 L 26.667 36.667 L 26.693 36.667 L 26.667 36.648 Z  M 40 33.86 L 40 33.86 L 40 36.667 L 43.333 36.667 L 43.333 34.701 L 40.823 35.768 L 40 33.86 Z  M 21.596 43.333 L 21.596 43.333 L 23.333 43.333 L 23.333 40 L 20.18 40 L 21.596 43.333 Z  M 13.866 46.667 L 13.333 46.667 L 13.333 46.667 L 13.333 46.667 L 13.333 46.667 L 13.333 46.667 L 13.333 46.667 L 13.333 46.667 L 13.333 50 L 16.667 50 L 16.667 46.667 L 15.183 46.667 L 14.068 47.141 L 13.866 46.667 Z  M 0 26.667 L 3.333 26.667 L 3.333 30 L 0 30 L 0 26.667 L 0 26.667 L 0 26.667 L 0 26.667 L 0 26.667 L 0 26.667 L 0 26.667 L 0 26.667 L 0 26.667 L 0 26.667 L 0 26.667 L 0 26.667 L 0 26.667 L 0 26.667 L 0 26.667 L 0 26.667 L 0 26.667 L 0 26.667 L 0 26.667 L 0 26.667 L 0 26.667 L 0 26.667 L 0 26.667 L 0 26.667 L 0 26.667 L 0 26.667 L 0 26.667 L 0 26.667 L 0 26.667 L 0 26.667 L 0 26.667 L 0 26.667 L 0 26.667 Z  M 13.333 0 L 16.667 0 L 16.667 3.333 L 13.333 3.333 L 13.333 0 L 13.333 0 L 13.333 0 L 13.333 0 L 13.333 0 L 13.333 0 L 13.333 0 L 13.333 0 L 13.333 0 L 13.333 0 L 13.333 0 L 13.333 0 L 13.333 0 L 13.333 0 L 13.333 0 L 13.333 0 L 13.333 0 L 13.333 0 L 13.333 0 L 13.333 0 L 13.333 0 L 13.333 0 L 13.333 0 L 13.333 0 L 13.333 0 L 13.333 0 L 13.333 0 L 13.333 0 L 13.333 0 L 13.333 0 L 13.333 0 L 13.333 0 L 13.333 0 L 13.333 0 L 13.333 0 L 13.333 0 L 13.333 0 L 13.333 0 L 13.333 0 L 13.333 0 L 13.333 0 L 13.333 0 L 13.333 0 L 13.333 0 L 13.333 0 L 13.333 0 L 13.333 0 L 13.333 0 L 13.333 0 L 13.333 0 L 13.333 0 L 13.333 0 L 13.333 0 L 13.333 0 L 13.333 0 L 13.333 0 L 13.333 0 L 13.333 0 L 13.333 0 L 13.333 0 L 13.333 0 L 13.333 0 L 13.333 0 Z  M 20 0 L 23.333 0 L 23.333 3.333 L 20 3.333 L 20 0 L 20 0 L 20 0 L 20 0 L 20 0 L 20 0 L 20 0 L 20 0 L 20 0 L 20 0 L 20 0 L 20 0 L 20 0 L 20 0 L 20 0 L 20 0 L 20 0 L 20 0 L 20 0 L 20 0 L 20 0 L 20 0 L 20 0 L 20 0 L 20 0 L 20 0 L 20 0 L 20 0 L 20 0 L 20 0 L 20 0 L 20 0 L 20 0 L 20 0 L 20 0 L 20 0 L 20 0 L 20 0 L 20 0 L 20 0 L 20 0 L 20 0 L 20 0 L 20 0 L 20 0 L 20 0 L 20 0 L 20 0 L 20 0 L 20 0 L 20 0 L 20 0 L 20 0 L 20 0 L 20 0 L 20 0 L 20 0 L 20 0 L 20 0 L 20 0 L 20 0 L 20 0 Z  M 26.667 0 L 30 0 L 30 3.333 L 26.667 3.333 L 26.667 0 L 26.667 0 L 26.667 0 L 26.667 0 L 26.667 0 L 26.667 0 L 26.667 0 L 26.667 0 L 26.667 0 L 26.667 0 L 26.667 0 L 26.667 0 L 26.667 0 L 26.667 0 L 26.667 0 L 26.667 0 L 26.667 0 L 26.667 0 L 26.667 0 L 26.667 0 L 26.667 0 L 26.667 0 L 26.667 0 L 26.667 0 L 26.667 0 L 26.667 0 L 26.667 0 L 26.667 0 L 26.667 0 L 26.667 0 L 26.667 0 L 26.667 0 L 26.667 0 L 26.667 0 L 26.667 0 L 26.667 0 L 26.667 0 L 26.667 0 L 26.667 0 L 26.667 0 L 26.667 0 L 26.667 0 L 26.667 0 L 26.667 0 L 26.667 0 L 26.667 0 L 26.667 0 L 26.667 0 L 26.667 0 L 26.667 0 L 26.667 0 L 26.667 0 L 26.667 0 L 26.667 0 L 26.667 0 L 26.667 0 L 26.667 0 L 26.667 0 L 26.667 0 L 26.667 0 L 26.667 0 Z  M 6.667 0 L 10 0 L 10 3.333 L 6.667 3.333 L 6.667 0 L 6.667 0 L 6.667 0 L 6.667 0 L 6.667 0 L 6.667 0 L 6.667 0 L 6.667 0 L 6.667 0 L 6.667 0 L 6.667 0 L 6.667 0 L 6.667 0 L 6.667 0 L 6.667 0 L 6.667 0 L 6.667 0 L 6.667 0 L 6.667 0 L 6.667 0 L 6.667 0 L 6.667 0 L 6.667 0 L 6.667 0 L 6.667 0 L 6.667 0 L 6.667 0 L 6.667 0 L 6.667 0 L 6.667 0 L 6.667 0 L 6.667 0 L 6.667 0 L 6.667 0 L 6.667 0 L 6.667 0 L 6.667 0 L 6.667 0 L 6.667 0 L 6.667 0 L 6.667 0 L 6.667 0 L 6.667 0 L 6.667 0 L 6.667 0 L 6.667 0 L 6.667 0 L 6.667 0 L 6.667 0 L 6.667 0 L 6.667 0 L 6.667 0 L 6.667 0 L 6.667 0 L 6.667 0 L 6.667 0 L 6.667 0 L 6.667 0 L 6.667 0 L 6.667 0 L 6.667 0 L 6.667 0 L 6.667 0 L 6.667 0 Z  M 0 0 L 3.333 0 L 3.333 3.333 L 0 3.333 L 0 0 L 0 0 L 0 0 L 0 0 L 0 0 L 0 0 L 0 0 L 0 0 L 0 0 L 0 0 L 0 0 L 0 0 L 0 0 L 0 0 L 0 0 L 0 0 L 0 0 L 0 0 L 0 0 L 0 0 L 0 0 L 0 0 L 0 0 L 0 0 L 0 0 L 0 0 L 0 0 L 0 0 L 0 0 L 0 0 L 0 0 L 0 0 L 0 0 L 0 0 L 0 0 L 0 0 L 0 0 L 0 0 L 0 0 L 0 0 L 0 0 L 0 0 L 0 0 L 0 0 L 0 0 L 0 0 L 0 0 L 0 0 L 0 0 L 0 0 L 0 0 L 0 0 L 0 0 L 0 0 L 0 0 L 0 0 L 0 0 L 0 0 L 0 0 L 0 0 L 0 0 L 0 0 L 0 0 L 0 0 Z  M 40 0 L 43.333 0 L 43.333 3.333 L 40 3.333 L 40 0 L 40 0 L 40 0 L 40 0 L 40 0 L 40 0 L 40 0 L 40 0 L 40 0 L 40 0 L 40 0 L 40 0 L 40 0 L 40 0 L 40 0 L 40 0 L 40 0 L 40 0 L 40 0 L 40 0 L 40 0 L 40 0 L 40 0 L 40 0 L 40 0 L 40 0 L 40 0 L 40 0 L 40 0 L 40 0 L 40 0 L 40 0 L 40 0 L 40 0 L 40 0 L 40 0 L 40 0 L 40 0 L 40 0 L 40 0 L 40 0 L 40 0 L 40 0 L 40 0 L 40 0 L 40 0 L 40 0 L 40 0 L 40 0 L 40 0 L 40 0 L 40 0 L 40 0 L 40 0 L 40 0 L 40 0 L 40 0 L 40 0 L 40 0 Z  M 46.667 0 L 50 0 L 50 3.333 L 46.667 3.333 L 46.667 0 L 46.667 0 L 46.667 0 L 46.667 0 L 46.667 0 L 46.667 0 L 46.667 0 L 46.667 0 L 46.667 0 L 46.667 0 L 46.667 0 L 46.667 0 L 46.667 0 L 46.667 0 L 46.667 0 L 46.667 0 L 46.667 0 L 46.667 0 L 46.667 0 L 46.667 0 L 46.667 0 L 46.667 0 L 46.667 0 L 46.667 0 L 46.667 0 L 46.667 0 L 46.667 0 L 46.667 0 L 46.667 0 L 46.667 0 L 46.667 0 L 46.667 0 L 46.667 0 L 46.667 0 L 46.667 0 L 46.667 0 L 46.667 0 L 46.667 0 L 46.667 0 L 46.667 0 L 46.667 0 L 46.667 0 L 46.667 0 L 46.667 0 L 46.667 0 L 46.667 0 L 46.667 0 L 46.667 0 L 46.667 0 L 46.667 0 L 46.667 0 L 46.667 0 L 46.667 0 L 46.667 0 L 46.667 0 L 46.667 0 L 46.667 0 L 46.667 0 Z  M 0 6.667 L 3.333 6.667 L 3.333 10 L 0 10 L 0 6.667 L 0 6.667 L 0 6.667 L 0 6.667 L 0 6.667 L 0 6.667 L 0 6.667 L 0 6.667 L 0 6.667 L 0 6.667 L 0 6.667 L 0 6.667 L 0 6.667 L 0 6.667 L 0 6.667 L 0 6.667 L 0 6.667 L 0 6.667 L 0 6.667 L 0 6.667 L 0 6.667 L 0 6.667 L 0 6.667 L 0 6.667 L 0 6.667 L 0 6.667 L 0 6.667 L 0 6.667 L 0 6.667 L 0 6.667 L 0 6.667 L 0 6.667 L 0 6.667 L 0 6.667 L 0 6.667 L 0 6.667 L 0 6.667 L 0 6.667 L 0 6.667 L 0 6.667 L 0 6.667 L 0 6.667 L 0 6.667 L 0 6.667 L 0 6.667 L 0 6.667 L 0 6.667 L 0 6.667 L 0 6.667 L 0 6.667 L 0 6.667 L 0 6.667 L 0 6.667 L 0 6.667 L 0 6.667 L 0 6.667 L 0 6.667 Z  M 6.667 6.667 L 10 6.667 L 10 10 L 6.667 10 L 6.667 6.667 L 6.667 6.667 L 6.667 6.667 L 6.667 6.667 L 6.667 6.667 L 6.667 6.667 L 6.667 6.667 L 6.667 6.667 L 6.667 6.667 L 6.667 6.667 L 6.667 6.667 L 6.667 6.667 L 6.667 6.667 L 6.667 6.667 L 6.667 6.667 L 6.667 6.667 L 6.667 6.667 L 6.667 6.667 L 6.667 6.667 L 6.667 6.667 L 6.667 6.667 L 6.667 6.667 L 6.667 6.667 L 6.667 6.667 L 6.667 6.667 L 6.667 6.667 L 6.667 6.667 L 6.667 6.667 L 6.667 6.667 L 6.667 6.667 L 6.667 6.667 L 6.667 6.667 L 6.667 6.667 L 6.667 6.667 L 6.667 6.667 L 6.667 6.667 L 6.667 6.667 L 6.667 6.667 L 6.667 6.667 L 6.667 6.667 L 6.667 6.667 L 6.667 6.667 L 6.667 6.667 L 6.667 6.667 L 6.667 6.667 L 6.667 6.667 L 6.667 6.667 L 6.667 6.667 L 6.667 6.667 L 6.667 6.667 L 6.667 6.667 L 6.667 6.667 L 6.667 6.667 L 6.667 6.667 L 6.667 6.667 L 6.667 6.667 Z  M 13.333 6.667 L 16.667 6.667 L 16.667 10 L 13.333 10 L 13.333 6.667 L 13.333 6.667 L 13.333 6.667 L 13.333 6.667 L 13.333 6.667 L 13.333 6.667 L 13.333 6.667 L 13.333 6.667 L 13.333 6.667 L 13.333 6.667 L 13.333 6.667 L 13.333 6.667 L 13.333 6.667 L 13.333 6.667 L 13.333 6.667 L 13.333 6.667 L 13.333 6.667 L 13.333 6.667 L 13.333 6.667 L 13.333 6.667 L 13.333 6.667 L 13.333 6.667 L 13.333 6.667 L 13.333 6.667 L 13.333 6.667 L 13.333 6.667 L 13.333 6.667 L 13.333 6.667 L 13.333 6.667 L 13.333 6.667 L 13.333 6.667 L 13.333 6.667 L 13.333 6.667 L 13.333 6.667 L 13.333 6.667 L 13.333 6.667 L 13.333 6.667 L 13.333 6.667 L 13.333 6.667 L 13.333 6.667 L 13.333 6.667 L 13.333 6.667 L 13.333 6.667 L 13.333 6.667 L 13.333 6.667 L 13.333 6.667 L 13.333 6.667 L 13.333 6.667 L 13.333 6.667 L 13.333 6.667 L 13.333 6.667 L 13.333 6.667 L 13.333 6.667 L 13.333 6.667 L 13.333 6.667 Z  M 20 6.667 L 23.333 6.667 L 23.333 10 L 20 10 L 20 6.667 L 20 6.667 L 20 6.667 L 20 6.667 L 20 6.667 L 20 6.667 L 20 6.667 L 20 6.667 L 20 6.667 L 20 6.667 L 20 6.667 L 20 6.667 L 20 6.667 L 20 6.667 L 20 6.667 L 20 6.667 L 20 6.667 L 20 6.667 L 20 6.667 L 20 6.667 L 20 6.667 L 20 6.667 L 20 6.667 L 20 6.667 L 20 6.667 L 20 6.667 L 20 6.667 L 20 6.667 L 20 6.667 L 20 6.667 L 20 6.667 L 20 6.667 L 20 6.667 L 20 6.667 L 20 6.667 L 20 6.667 L 20 6.667 L 20 6.667 L 20 6.667 L 20 6.667 L 20 6.667 L 20 6.667 L 20 6.667 L 20 6.667 L 20 6.667 L 20 6.667 L 20 6.667 L 20 6.667 L 20 6.667 L 20 6.667 L 20 6.667 L 20 6.667 L 20 6.667 L 20 6.667 Z  M 40 6.667 L 43.333 6.667 L 43.333 10 L 40 10 L 40 6.667 L 40 6.667 L 40 6.667 L 40 6.667 L 40 6.667 L 40 6.667 L 40 6.667 L 40 6.667 L 40 6.667 L 40 6.667 L 40 6.667 L 40 6.667 L 40 6.667 L 40 6.667 L 40 6.667 L 40 6.667 L 40 6.667 L 40 6.667 L 40 6.667 L 40 6.667 L 40 6.667 L 40 6.667 L 40 6.667 L 40 6.667 L 40 6.667 L 40 6.667 L 40 6.667 L 40 6.667 L 40 6.667 L 40 6.667 L 40 6.667 L 40 6.667 L 40 6.667 L 40 6.667 L 40 6.667 L 40 6.667 L 40 6.667 L 40 6.667 L 40 6.667 L 40 6.667 L 40 6.667 L 40 6.667 L 40 6.667 L 40 6.667 L 40 6.667 L 40 6.667 L 40 6.667 L 40 6.667 L 40 6.667 L 40 6.667 L 40 6.667 Z  M 46.667 6.667 L 50 6.667 L 50 10 L 46.667 10 L 46.667 6.667 L 46.667 6.667 L 46.667 6.667 L 46.667 6.667 L 46.667 6.667 L 46.667 6.667 L 46.667 6.667 L 46.667 6.667 L 46.667 6.667 L 46.667 6.667 L 46.667 6.667 L 46.667 6.667 L 46.667 6.667 L 46.667 6.667 L 46.667 6.667 L 46.667 6.667 L 46.667 6.667 L 46.667 6.667 L 46.667 6.667 L 46.667 6.667 L 46.667 6.667 L 46.667 6.667 L 46.667 6.667 L 46.667 6.667 L 46.667 6.667 L 46.667 6.667 L 46.667 6.667 L 46.667 6.667 L 46.667 6.667 L 46.667 6.667 L 46.667 6.667 L 46.667 6.667 L 46.667 6.667 L 46.667 6.667 L 46.667 6.667 L 46.667 6.667 L 46.667 6.667 L 46.667 6.667 L 46.667 6.667 L 46.667 6.667 L 46.667 6.667 L 46.667 6.667 L 46.667 6.667 L 46.667 6.667 L 46.667 6.667 L 46.667 6.667 L 46.667 6.667 L 46.667 6.667 L 46.667 6.667 L 46.667 6.667 Z  M 0 13.333 L 3.333 13.333 L 3.333 16.667 L 0 16.667 L 0 13.333 L 0 13.333 L 0 13.333 L 0 13.333 L 0 13.333 L 0 13.333 L 0 13.333 L 0 13.333 L 0 13.333 L 0 13.333 L 0 13.333 L 0 13.333 L 0 13.333 L 0 13.333 L 0 13.333 L 0 13.333 L 0 13.333 L 0 13.333 L 0 13.333 L 0 13.333 L 0 13.333 L 0 13.333 L 0 13.333 L 0 13.333 L 0 13.333 L 0 13.333 L 0 13.333 L 0 13.333 L 0 13.333 L 0 13.333 L 0 13.333 L 0 13.333 L 0 13.333 L 0 13.333 L 0 13.333 L 0 13.333 L 0 13.333 L 0 13.333 L 0 13.333 L 0 13.333 L 0 13.333 L 0 13.333 L 0 13.333 L 0 13.333 L 0 13.333 L 0 13.333 L 0 13.333 L 0 13.333 L 0 13.333 Z  M 13.333 13.333 L 16.667 13.333 L 16.667 16.667 L 13.333 16.667 L 13.333 13.333 L 13.333 13.333 L 13.333 13.333 L 13.333 13.333 L 13.333 13.333 L 13.333 13.333 L 13.333 13.333 L 13.333 13.333 L 13.333 13.333 L 13.333 13.333 L 13.333 13.333 L 13.333 13.333 L 13.333 13.333 L 13.333 13.333 L 13.333 13.333 L 13.333 13.333 L 13.333 13.333 L 13.333 13.333 L 13.333 13.333 L 13.333 13.333 L 13.333 13.333 L 13.333 13.333 L 13.333 13.333 L 13.333 13.333 L 13.333 13.333 L 13.333 13.333 L 13.333 13.333 L 13.333 13.333 L 13.333 13.333 L 13.333 13.333 L 13.333 13.333 L 13.333 13.333 L 13.333 13.333 L 13.333 13.333 L 13.333 13.333 L 13.333 13.333 L 13.333 13.333 L 13.333 13.333 L 13.333 13.333 L 13.333 13.333 L 13.333 13.333 L 13.333 13.333 L 13.333 13.333 L 13.333 13.333 L 13.333 13.333 L 13.333 13.333 L 13.333 13.333 Z  M 20 13.333 L 23.333 13.333 L 23.333 16.667 L 20 16.667 L 20 13.333 L 20 13.333 L 20 13.333 L 20 13.333 L 20 13.333 L 20 13.333 L 20 13.333 L 20 13.333 L 20 13.333 L 20 13.333 L 20 13.333 L 20 13.333 L 20 13.333 L 20 13.333 L 20 13.333 L 20 13.333 L 20 13.333 L 20 13.333 L 20 13.333 L 20 13.333 L 20 13.333 L 20 13.333 L 20 13.333 L 20 13.333 L 20 13.333 L 20 13.333 L 20 13.333 L 20 13.333 L 20 13.333 L 20 13.333 L 20 13.333 L 20 13.333 L 20 13.333 L 20 13.333 L 20 13.333 L 20 13.333 L 20 13.333 L 20 13.333 L 20 13.333 L 20 13.333 L 20 13.333 L 20 13.333 L 20 13.333 L 20 13.333 L 20 13.333 L 20 13.333 Z  M 46.667 13.333 L 50 13.333 L 50 16.667 L 46.667 16.667 L 46.667 13.333 L 46.667 13.333 L 46.667 13.333 L 46.667 13.333 L 46.667 13.333 L 46.667 13.333 L 46.667 13.333 L 46.667 13.333 L 46.667 13.333 L 46.667 13.333 L 46.667 13.333 L 46.667 13.333 L 46.667 13.333 L 46.667 13.333 L 46.667 13.333 L 46.667 13.333 L 46.667 13.333 L 46.667 13.333 L 46.667 13.333 L 46.667 13.333 L 46.667 13.333 L 46.667 13.333 L 46.667 13.333 L 46.667 13.333 L 46.667 13.333 L 46.667 13.333 L 46.667 13.333 L 46.667 13.333 L 46.667 13.333 L 46.667 13.333 L 46.667 13.333 L 46.667 13.333 L 46.667 13.333 L 46.667 13.333 L 46.667 13.333 L 46.667 13.333 L 46.667 13.333 L 46.667 13.333 L 46.667 13.333 L 46.667 13.333 L 46.667 13.333 L 46.667 13.333 Z  M 46.667 20 L 50 20 L 50 23.333 L 46.667 23.333 L 46.667 20 L 46.667 20 L 46.667 20 L 46.667 20 L 46.667 20 L 46.667 20 L 46.667 20 L 46.667 20 L 46.667 20 L 46.667 20 L 46.667 20 L 46.667 20 L 46.667 20 L 46.667 20 L 46.667 20 L 46.667 20 L 46.667 20 L 46.667 20 L 46.667 20 L 46.667 20 L 46.667 20 L 46.667 20 L 46.667 20 L 46.667 20 L 46.667 20 L 46.667 20 L 46.667 20 L 46.667 20 L 46.667 20 L 46.667 20 L 46.667 20 L 46.667 20 L 46.667 20 L 46.667 20 Z  M 33.333 26.667 L 36.667 26.667 L 36.667 30 L 33.333 30 L 33.333 26.667 L 33.333 26.667 L 33.333 26.667 L 33.333 26.667 L 33.333 26.667 L 33.333 26.667 L 33.333 26.667 L 33.333 26.667 L 33.333 26.667 L 33.333 26.667 L 33.333 26.667 L 33.333 26.667 L 33.333 26.667 L 33.333 26.667 L 33.333 26.667 L 33.333 26.667 L 33.333 26.667 L 33.333 26.667 L 33.333 26.667 L 33.333 26.667 L 33.333 26.667 L 33.333 26.667 L 33.333 26.667 L 33.333 26.667 L 33.333 26.667 L 33.333 26.667 L 33.333 26.667 L 33.333 26.667 Z  M 0 33.333 L 3.333 33.333 L 3.333 36.667 L 0 36.667 L 0 33.333 L 0 33.333 L 0 33.333 L 0 33.333 L 0 33.333 L 0 33.333 L 0 33.333 L 0 33.333 L 0 33.333 L 0 33.333 L 0 33.333 L 0 33.333 L 0 33.333 L 0 33.333 L 0 33.333 L 0 33.333 L 0 33.333 L 0 33.333 L 0 33.333 L 0 33.333 L 0 33.333 L 0 33.333 L 0 33.333 L 0 33.333 L 0 33.333 Z  M 33.333 33.333 L 36.667 33.333 L 36.667 36.667 L 33.333 36.667 L 33.333 33.333 L 33.333 33.333 L 33.333 33.333 L 33.333 33.333 L 33.333 33.333 L 33.333 33.333 L 33.333 33.333 L 33.333 33.333 L 33.333 33.333 L 33.333 33.333 L 33.333 33.333 L 33.333 33.333 L 33.333 33.333 L 33.333 33.333 L 33.333 33.333 L 33.333 33.333 L 33.333 33.333 L 33.333 33.333 L 33.333 33.333 L 33.333 33.333 Z  M 46.667 33.333 L 50 33.333 L 50 36.667 L 46.667 36.667 L 46.667 33.333 L 46.667 33.333 L 46.667 33.333 L 46.667 33.333 L 46.667 33.333 L 46.667 33.333 L 46.667 33.333 L 46.667 33.333 L 46.667 33.333 L 46.667 33.333 L 46.667 33.333 L 46.667 33.333 L 46.667 33.333 L 46.667 33.333 L 46.667 33.333 L 46.667 33.333 L 46.667 33.333 L 46.667 33.333 Z  M 0 40 L 3.333 40 L 3.333 43.333 L 0 43.333 L 0 40 L 0 40 L 0 40 L 0 40 L 0 40 L 0 40 L 0 40 L 0 40 L 0 40 L 0 40 L 0 40 L 0 40 L 0 40 L 0 40 L 0 40 L 0 40 L 0 40 Z  M 6.667 40 L 10 40 L 10 43.333 L 6.667 43.333 L 6.667 40 L 6.667 40 L 6.667 40 L 6.667 40 L 6.667 40 L 6.667 40 L 6.667 40 L 6.667 40 L 6.667 40 L 6.667 40 L 6.667 40 L 6.667 40 L 6.667 40 L 6.667 40 L 6.667 40 L 6.667 40 Z  M 26.667 40 L 30 40 L 30 43.333 L 26.667 43.333 L 26.667 40 L 26.667 40 L 26.667 40 L 26.667 40 L 26.667 40 L 26.667 40 L 26.667 40 L 26.667 40 L 26.667 40 L 26.667 40 L 26.667 40 L 26.667 40 L 26.667 40 Z  M 33.333 40 L 36.667 40 L 36.667 43.333 L 33.333 43.333 L 33.333 40 L 33.333 40 L 33.333 40 L 33.333 40 L 33.333 40 L 33.333 40 L 33.333 40 L 33.333 40 L 33.333 40 L 33.333 40 L 33.333 40 L 33.333 40 Z  M 40 40 L 43.333 40 L 43.333 43.333 L 40 43.333 L 40 40 L 40 40 L 40 40 L 40 40 L 40 40 L 40 40 L 40 40 L 40 40 L 40 40 L 40 40 L 40 40 Z  M 46.667 40 L 50 40 L 50 43.333 L 46.667 43.333 L 46.667 40 L 46.667 40 L 46.667 40 L 46.667 40 L 46.667 40 L 46.667 40 L 46.667 40 L 46.667 40 L 46.667 40 L 46.667 40 Z  M 0 46.667 L 3.333 46.667 L 3.333 50 L 0 50 L 0 46.667 L 0 46.667 L 0 46.667 L 0 46.667 L 0 46.667 L 0 46.667 L 0 46.667 L 0 46.667 L 0 46.667 Z  M 6.667 46.667 L 10 46.667 L 10 50 L 6.667 50 L 6.667 46.667 L 6.667 46.667 L 6.667 46.667 L 6.667 46.667 L 6.667 46.667 L 6.667 46.667 L 6.667 46.667 L 6.667 46.667 Z  M 20 46.667 L 23.333 46.667 L 23.333 50 L 20 50 L 20 46.667 L 20 46.667 L 20 46.667 L 20 46.667 L 20 46.667 L 20 46.667 Z  M 26.667 46.667 L 30 46.667 L 30 50 L 26.667 50 L 26.667 46.667 L 26.667 46.667 L 26.667 46.667 L 26.667 46.667 L 26.667 46.667 Z  M 33.333 46.667 L 36.667 46.667 L 36.667 50 L 33.333 50 L 33.333 46.667 L 33.333 46.667 L 33.333 46.667 L 33.333 46.667 Z  M 40 46.667 L 43.333 46.667 L 43.333 50 L 40 50 L 40 46.667 L 40 46.667 L 40 46.667 Z  M 46.667 46.667 L 50 46.667 L 50 50 L 46.667 50 L 46.667 46.667 L 46.667 46.667 Z " fill-rule="evenodd" fill="rgb(0,0,0)"/></g></g></svg>